<svg xmlns="http://www.w3.org/2000/svg" width="1092.099" height="410.349" viewBox="0 0 1092.099 410.349">
  <g id="Grupo_114" data-name="Grupo 114" transform="translate(-176.828 -9698.102)">
    <text id="Positivo" transform="translate(232.497 9770.264)" fill="#444242" stroke="#444242" stroke-miterlimit="10" stroke-width="2" font-size="24" font-family="Montserrat-ExtraLight, Montserrat" font-weight="200"><tspan x="0" y="23">Positivo</tspan></text>
    <path id="Trazado_132" data-name="Trazado 132" d="M485.177,9905.4l-35.036-35.036v3.186h0v16.721l14.333,15.13-14.333,15.926v15.926h0v3.982Z" fill="#ff3232"/>
    <path id="Trazado_133" data-name="Trazado 133" d="M757.5,9905.4l-35.036-35.036v3.186h0v16.721L736.8,9905.4l-14.333,15.926v15.926h0v3.982Z" fill="#ff3232"/>
    <path id="Trazado_134" data-name="Trazado 134" d="M1029.832,9905.4,994.8,9870.362v3.186h0v16.721l14.333,15.13L994.8,9921.324v15.926h0v3.982Z" fill="#ff3232"/>
    <g id="Grupo_91" data-name="Grupo 91">
      <path id="Trazado_135" data-name="Trazado 135" d="M407.088,9797.113v-79.745H395.009v-16.234h29.352v95.979Z" fill="#db9600"/>
    </g>
    <g id="Grupo_92" data-name="Grupo 92">
      <path id="Trazado_136" data-name="Trazado 136" d="M684.7,9763.085l-19.612,17.793h37.794v16.235H640.8v-15.2l34.158-32.339c7.793-7.4,11.039-12.988,11.039-19.222,0-8.572-5.974-15.066-13.9-15.066-8.962,0-14.936,7.533-14.936,18.962H640.154c0-22.079,13.377-34.807,31.82-34.807,17.793,0,31.3,13.508,31.3,31.171C703.274,9742.435,699.248,9749.967,684.7,9763.085Z" fill="#db9600"/>
    </g>
    <g id="Grupo_93" data-name="Grupo 93">
      <path id="Trazado_137" data-name="Trazado 137" d="M953.808,9797.458c-18.442,0-32.079-12.728-33.118-30.781h17.4c1.169,9.091,7.273,14.937,15.585,14.937,8.7,0,15.066-6.754,15.066-15.976,0-9.74-7.4-16.1-18.832-16.1h-2.857v-16.624c10.909-.26,14.806-3.247,14.806-9.871,0-5.325-3.507-9.091-8.443-9.091-4.675,0-7.273,2.727-8.052,8.7H927.833c1.3-16.235,12.078-24.548,25.456-24.548,14.806,0,25.845,11.039,25.845,25.846,0,7.4-2.468,12.469-8.052,16.5,9.87,4.416,14.936,12.728,14.936,24.806C986.018,9783.821,972.381,9797.458,953.808,9797.458Z" fill="#db9600"/>
    </g>
    <g id="Grupo_94" data-name="Grupo 94">
      <path id="Trazado_138" data-name="Trazado 138" d="M1244.589,9783.368v14.416h-17.274v-14.416h-41.43v-14.027l44.158-67.536h14.546v66.108h10.13v15.455Zm-17.274-52.47-23.9,37.015h23.9Z" fill="#db9600"/>
    </g>
    <path id="Trazado_139" data-name="Trazado 139" d="M450.35,9920.926a1.194,1.194,0,0,1-.844-2.039L463.79,9904.6l-14.284-14.284a1.194,1.194,0,1,1,1.689-1.689l15.129,15.13a1.2,1.2,0,0,1,0,1.689L451.2,9920.576A1.2,1.2,0,0,1,450.35,9920.926Z" fill="#202020"/>
    <path id="Trazado_140" data-name="Trazado 140" d="M722.678,9920.926a1.194,1.194,0,0,1-.845-2.039l14.285-14.285-14.285-14.284a1.194,1.194,0,0,1,1.689-1.689l15.13,15.13a1.2,1.2,0,0,1,0,1.689l-15.13,15.129A1.191,1.191,0,0,1,722.678,9920.926Z" fill="#202020"/>
    <path id="Trazado_141" data-name="Trazado 141" d="M995.006,9920.926a1.194,1.194,0,0,1-.845-2.039l14.285-14.285-14.285-14.284a1.194,1.194,0,0,1,1.689-1.689l15.13,15.13a1.2,1.2,0,0,1,0,1.689l-15.13,15.129A1.191,1.191,0,0,1,995.006,9920.926Z" fill="#202020"/>
    <g id="Grupo_95" data-name="Grupo 95" opacity="0.7">
      <path id="Trazado_142" data-name="Trazado 142" d="M321.5,10050.369a17.275,17.275,0,0,0-24.432,0c-4.309,4.308-3.909,10.248-3.554,15.515.083,1.227.162,2.387.179,3.485l-3.144,3.15a1.039,1.039,0,0,0,0,1.475l7.681,7.681a1.036,1.036,0,0,0,.738.306h.024a1.124,1.124,0,0,0,.716-.31l3.185-3.217c.818.011,1.707.057,2.691.108,1.152.059,2.585.133,4.017.133,3.725,0,8.444-.443,11.895-3.9a17.275,17.275,0,0,0,0-24.431Zm-11.9,26.241c-1.323,0-2.624-.066-3.91-.132-1.14-.058-2.218-.112-3.23-.112a1.036,1.036,0,0,0-.743.309l-2.755,2.785-6.2-6.2,2.718-2.723a1.036,1.036,0,0,0,.3-.735c0-1.348-.1-2.8-.188-4.083-.338-5.031-.689-10.232,2.949-13.871a15.189,15.189,0,1,1,21.48,21.48C317.113,10076.237,312.926,10076.61,309.6,10076.61Z" fill="#202020"/>
      <path id="Trazado_143" data-name="Trazado 143" d="M289.286,10080.752a1.043,1.043,0,0,0-1.474,1.477l1.832,1.83a1.039,1.039,0,0,0,1.475,0,1.046,1.046,0,0,0,0-1.474Z" fill="#202020"/>
      <path id="Trazado_144" data-name="Trazado 144" d="M289.65,10076.016a1.044,1.044,0,0,0-1.474,1.478l6.558,6.559a1.044,1.044,0,0,0,.738.307,1.043,1.043,0,0,0,.737-1.781Z" fill="#202020"/>
      <path id="Trazado_145" data-name="Trazado 145" d="M311.71,10066.7l-6.15-.166.164-6.152a1.036,1.036,0,0,0-.285-.745,1.072,1.072,0,0,0-.774-.326,1.042,1.042,0,0,0-1.026,1.017l-.192,7.193a1.044,1.044,0,0,0,1.015,1.069l7.22.2a1.043,1.043,0,0,0,.028-2.085Z" fill="#202020"/>
      <path id="Trazado_146" data-name="Trazado 146" d="M292.36,10046.1a1.041,1.041,0,0,0,.737-1.78l-4.141-4.135a1.042,1.042,0,0,0-.738-.3,1.031,1.031,0,0,0-.736.306,1.044,1.044,0,0,0,0,1.476l4.141,4.136A1.04,1.04,0,0,0,292.36,10046.1Z" fill="#202020"/>
      <path id="Trazado_147" data-name="Trazado 147" d="M327.362,10078.593a1.044,1.044,0,0,0-1.474,1.478l4.141,4.134a1.031,1.031,0,0,0,.738.3,1.041,1.041,0,0,0,.736-1.781Z" fill="#202020"/>
      <path id="Trazado_148" data-name="Trazado 148" d="M309.495,10039.01h0a1.044,1.044,0,0,0,1.043-1.043l-.006-5.856a1.044,1.044,0,0,0-2.087,0l.005,5.854A1.047,1.047,0,0,0,309.495,10039.01Z" fill="#202020"/>
      <path id="Trazado_149" data-name="Trazado 149" d="M309.489,10085.383a1.047,1.047,0,0,0-1.042,1.045l.005,5.854a1.043,1.043,0,0,0,2.086,0l0-5.856A1.047,1.047,0,0,0,309.489,10085.383Z" fill="#202020"/>
      <path id="Trazado_150" data-name="Trazado 150" d="M339.577,10061.152l-5.854.006a1.042,1.042,0,1,0,0,2.085l5.855-.006a1.036,1.036,0,0,0,.739-.308,1.025,1.025,0,0,0,.3-.734A1.043,1.043,0,0,0,339.577,10061.152Z" fill="#202020"/>
      <path id="Trazado_151" data-name="Trazado 151" d="M285.262,10061.152l-5.856.006a1.042,1.042,0,0,0,0,2.085l5.856-.006a1.042,1.042,0,0,0,.738-.308,1.029,1.029,0,0,0,.3-.736A1.042,1.042,0,0,0,285.262,10061.152Z" fill="#202020"/>
      <path id="Trazado_152" data-name="Trazado 152" d="M326.628,10046.108a1.031,1.031,0,0,0,.738-.307l4.137-4.141a1.043,1.043,0,1,0-1.476-1.475l-4.137,4.142a1.043,1.043,0,0,0,.738,1.78Z" fill="#202020"/>
    </g>
    <g id="Grupo_96" data-name="Grupo 96" opacity="0.7">
      <path id="Trazado_153" data-name="Trazado 153" d="M618.259,10067.024a.984.984,0,0,0-.22-.327l-3.966-3.937a.979.979,0,0,0-.01-1.395l3.937-3.97.034-.039.016-.03a.991.991,0,0,0,.165-.255,1.007,1.007,0,0,0,.059-.264l.006-.029.012-.018v-.014l.018-.036-.019-.059a1.038,1.038,0,0,0-.618-.89.8.8,0,0,0-.288-.063l-.066-.016-6.738-.03a1,1,0,0,0-.326.074.947.947,0,0,0-.278.179l-.017.008-5.143,5.185-1.99.009a21.174,21.174,0,1,0,.009,2.008l2.116-.009,5.062,5.011a.9.9,0,0,0,.266.175l.059.036h.029a1.248,1.248,0,0,0,.309.051l6.709.024a1,1,0,0,0,.275-.056l-.058-.231.147.2a1.137,1.137,0,0,0,.294-.2.425.425,0,0,0,.068-.093.994.994,0,0,0,.147-.232.877.877,0,0,0,.059-.272l.018-.074v-.034A1.011,1.011,0,0,0,618.259,10067.024Zm-7.162-.649-3.3-3.279,3.752-.015,3.34,3.313Zm3.8-8.7-3.364,3.394-3.873.016,3.4-3.426Zm-33.206,3.514a1,1,0,0,0-.356,1.939,1.02,1.02,0,0,0,.365.067l3.341-.014a2.393,2.393,0,0,1-.087.269,3.516,3.516,0,0,1-3.262,2.234,3.455,3.455,0,0,1-1.254-.234,3.493,3.493,0,0,1,1.261-6.752,3.486,3.486,0,0,1,3.332,2.476Zm5.4-.022a5.487,5.487,0,1,0-.266,3.007,5.425,5.425,0,0,0,.276-1l2.966-.012a8.411,8.411,0,0,1-8.384,7.463h0a8.439,8.439,0,0,1-7.857-11.472,8.493,8.493,0,0,1,7.877-5.4,8.424,8.424,0,0,1,8.351,7.4Zm4.977-.02a10.5,10.5,0,0,0-6.614-8.694,10.373,10.373,0,0,0-3.751-.7,10.515,10.515,0,0,0-9.751,6.681,10.444,10.444,0,0,0,9.73,14.2,10.435,10.435,0,0,0,10.407-9.479l3.383-.014a13.681,13.681,0,0,1-.887,4.03,13.916,13.916,0,0,1-12.909,8.843,13.822,13.822,0,0,1-12.877-18.8,13.919,13.919,0,0,1,12.91-8.843,13.719,13.719,0,0,1,4.962.928,13.867,13.867,0,0,1,8.788,11.834Zm5.4-.022a15.815,15.815,0,1,0-21.479,15.832,15.7,15.7,0,0,0,5.683,1.064,15.942,15.942,0,0,0,14.784-10.127,15.749,15.749,0,0,0,1.022-4.762l3.332-.013a19.03,19.03,0,0,1-1.245,5.975,19.3,19.3,0,0,1-17.9,12.261,19.175,19.175,0,0,1-17.854-26.065,19.3,19.3,0,0,1,17.9-12.26,19.151,19.151,0,0,1,19.1,18.082Z" fill="#202020"/>
    </g>
    <g id="Grupo_97" data-name="Grupo 97" opacity="0.7">
      <path id="Trazado_154" data-name="Trazado 154" d="M178.022,10108.052a1.2,1.2,0,0,1-1.194-1.194V9702.347a1.194,1.194,0,0,1,2.389,0v404.511A1.2,1.2,0,0,1,178.022,10108.052Z" fill="#202020"/>
      <path id="Trazado_155" data-name="Trazado 155" d="M450.35,10108.052a1.2,1.2,0,0,1-1.194-1.194V9919.731a1.194,1.194,0,1,1,2.388,0v187.126A1.2,1.2,0,0,1,450.35,10108.052Z" fill="#202020"/>
      <path id="Trazado_156" data-name="Trazado 156" d="M450.35,9890.667a1.2,1.2,0,0,1-1.194-1.194V9702.347a1.194,1.194,0,1,1,2.388,0v187.126A1.2,1.2,0,0,1,450.35,9890.667Z" fill="#202020"/>
      <path id="Trazado_157" data-name="Trazado 157" d="M722.678,10108.052a1.2,1.2,0,0,1-1.194-1.194V9919.731a1.194,1.194,0,1,1,2.388,0v187.126A1.2,1.2,0,0,1,722.678,10108.052Z" fill="#202020"/>
      <path id="Trazado_158" data-name="Trazado 158" d="M722.678,9890.667a1.2,1.2,0,0,1-1.194-1.194V9702.347a1.194,1.194,0,1,1,2.388,0v187.126A1.2,1.2,0,0,1,722.678,9890.667Z" fill="#202020"/>
      <path id="Trazado_159" data-name="Trazado 159" d="M995.006,10108.052a1.2,1.2,0,0,1-1.194-1.194V9919.731a1.194,1.194,0,1,1,2.388,0v187.126A1.2,1.2,0,0,1,995.006,10108.052Z" fill="#202020"/>
      <path id="Trazado_160" data-name="Trazado 160" d="M995.006,9890.667a1.2,1.2,0,0,1-1.194-1.194V9702.347a1.194,1.194,0,1,1,2.388,0v187.126A1.2,1.2,0,0,1,995.006,9890.667Z" fill="#202020"/>
      <path id="Trazado_161" data-name="Trazado 161" d="M1267.732,10108.45a1.2,1.2,0,0,1-1.194-1.2v-404.51a1.195,1.195,0,0,1,2.389,0v404.51A1.2,1.2,0,0,1,1267.732,10108.45Z" fill="#202020"/>
    </g>
    <text id="Lo_que_uno_desea_o_necesita_que_ocurra:_deseable._" data-name="Lo que uno desea o necesita que ocurra: deseable.



  






" transform="translate(232.497 9832.494)" fill="#444242" font-size="16" font-family="OpenSans, Open Sans"><tspan x="0" y="17">Lo que uno desea o </tspan><tspan x="0" y="39">necesita que ocurra: </tspan><tspan x="0" y="61">deseable.</tspan><tspan x="0" y="83"></tspan><tspan x="0" y="105"></tspan><tspan x="0" y="127"></tspan><tspan x="0" y="149" xml:space="preserve">  </tspan><tspan x="0" y="171"></tspan></text>
    <text id="Correctivo" transform="translate(497.723 9770.264)" fill="#444242" stroke="#444242" stroke-miterlimit="10" stroke-width="2" font-size="24" font-family="Montserrat-ExtraLight, Montserrat" font-weight="200"><tspan x="0" y="23">Correctivo</tspan></text>
    <text id="Corrige_lo_malo_y_estudia_lo_bueno_para_que_mejore._" data-name="Corrige lo malo y estudia lo bueno para que mejore.


  






" transform="translate(498.973 9832.494)" fill="#444242" font-size="16" font-family="OpenSans, Open Sans"><tspan x="0" y="17">Corrige lo malo y </tspan><tspan x="0" y="39">estudia lo bueno para </tspan><tspan x="0" y="61">que mejore.</tspan><tspan x="0" y="83"></tspan></text>
    <text id="El_pesimista" data-name="El pesimista" transform="translate(765.438 9770.264)" fill="#444242" stroke="#444242" stroke-miterlimit="10" stroke-width="2" font-size="24" font-family="Montserrat-ExtraLight, Montserrat" font-weight="200"><tspan x="0" y="23">El pesimista</tspan></text>
    <text id="Tendencial" transform="translate(1023.098 9770.264)" fill="#444242" stroke="#444242" stroke-miterlimit="10" stroke-width="2" font-size="24" font-family="Montserrat-ExtraLight, Montserrat" font-weight="200"><tspan x="0" y="23">Tendencial</tspan></text>
    <text id="Tiene_en_cuenta_lo_peor_ya_que_no_podemos_desdeñar_las_posibilidades_negativas_en_nuestra_planeación._" data-name="Tiene en cuenta lo peor ya que no podemos desdeñar las posibilidades negativas en nuestra planeación.


  






" transform="translate(766.688 9832.494)" fill="#444242" font-size="16" font-family="OpenSans, Open Sans"><tspan x="0" y="17">Tiene en cuenta lo peor </tspan><tspan x="0" y="39">ya que no podemos </tspan><tspan x="0" y="61">desdeñar las </tspan><tspan x="0" y="83">posibilidades negativas </tspan><tspan x="0" y="105">en nuestra planeación.</tspan><tspan x="0" y="127"></tspan><tspan x="0" y="149"></tspan></text>
    <text id="Que_ocurriría_si_no_hacemos_nada_para_corregir_las_cosas_que_no_están_funcionando_entonces_la_situación_tiende_a_empeorar._es_cercano_al_pesimista_._" data-name="Que ocurriría si no hacemos nada para corregir las cosas que no están funcionando, entonces la situación tiende a empeorar. (es cercano al pesimista).


  






" transform="translate(1036.191 9832.494)" fill="#444242" font-size="16" font-family="OpenSans, Open Sans"><tspan x="0" y="17">Que ocurriría si no </tspan><tspan x="0" y="39">hacemos nada para </tspan><tspan x="0" y="61">corregir las cosas que </tspan><tspan x="0" y="83">no están funcionando, </tspan><tspan x="0" y="105">entonces la situación </tspan><tspan x="0" y="127">tiende a empeorar. (es </tspan><tspan x="0" y="149">cercano al pesimista).</tspan><tspan x="0" y="171"></tspan></text>
    <g id="Grupo_98" data-name="Grupo 98" opacity="0.7">
      <path id="Trazado_162" data-name="Trazado 162" d="M856.893,10074.032c2.231-2.084,4.338-4.055,4.338-6.334l1.1-1.1h4.391v2.2h-3.4c-.5,2.692-2.742,4.8-4.929,6.839-2.494,2.33-4.848,4.53-4.848,7.441v10.983l-1.1,1.1c-2.756,0-5.345-2.434-7.1-6.676-2.151-5.191-2.723-12.159-.5-16.392H830.6a40.991,40.991,0,0,0-7.812-14.273,5.441,5.441,0,0,0,1.22-8.789,5.534,5.534,0,0,1,1.606-3.943,5.257,5.257,0,0,1,2.706-1.446,5.733,5.733,0,0,1-1.016-3.4,5.144,5.144,0,0,1,5.493-5.49h15.256c1.543,0,9.418.172,12.858,3.615l-.083-.073,4.088,3.326h1.807v2.2h-2.2l-.694-.245-4.394-3.577-.083-.075c-2.053-2.054-7.156-2.973-11.3-2.973H832.795a2.971,2.971,0,0,0-3.295,3.293,2.973,2.973,0,0,0,3.295,3.3h.978v2.2h-4.394a3.1,3.1,0,0,0-2.212.907,3.343,3.343,0,0,0-.961,2.39,3.3,3.3,0,0,0,3.294,3.295h4.273v2.194h-5.49a3.3,3.3,0,1,0,0,6.592h2.3l.019,0,3.174,0v2.2l-2.073,0v0h-1.121a3.294,3.294,0,0,0,.021,6.588h16.353l.776,1.875c-2.933,2.936-2.554,10.575-.358,15.872,1.1,2.656,2.531,4.438,3.976,5.062v-9.626C851.346,10079.212,854.292,10076.459,856.893,10074.032Z" fill="#202020"/>
      <path id="Trazado_163" data-name="Trazado 163" d="M881,10068.8H870.02v-27.18H881v-2.193H868.919l-1.1,1.1v29.372l1.1,1.1H881Zm-6.589-24.162v2.194h2.2v-2.194Z" fill="#202020"/>
    </g>
    <g id="Grupo_99" data-name="Grupo 99" opacity="0.7">
      <path id="Trazado_164" data-name="Trazado 164" d="M1156.378,10055.635c-1.891,1.086-4.529,2.949-6.65,4.447l-1.287.9a5.824,5.824,0,0,0-4.806-.056,51.7,51.7,0,0,0-6.648,3.54,20.081,20.081,0,0,0-10.27-2.256h-5.693c-9.6,0-17.125,7.1-17.125,16.177h0v8.563h1.9v-3.806h17.128v3.806h1.9v-4.757c-.009-2.806,1.085-3.03,4.878-3.383,3.874-.359,9.73-.9,16.158-6.54-.032.027,17.618-14.073,17.618-14.073l.022-1.469C1162.094,10055.537,1158.91,10054.181,1156.378,10055.635Zm-11.732,15.182c-6,5.257-11.266,5.745-15.114,6.1-3.289.3-6.158.579-6.553,4.327H1105.8l0-2.854,0,0c0-8,6.689-14.27,15.224-14.27h5.711a18.06,18.06,0,0,1,9.808,2.27l.984-.018a50.5,50.5,0,0,1,6.87-3.7,3.991,3.991,0,0,1,3.464.15l-9.822,6.79c-2.075,1.165-5.932,1.165-8.486,1.165a13.582,13.582,0,0,0-5.152,1.038l.791,1.73h0a11.81,11.81,0,0,1,4.364-.867c2.752,0,6.91,0,9.494-1.455.074-.046,11.019-7.611,11.019-7.611l.133-1.456a.558.558,0,0,0-.05-.047l.677-.475c2.089-1.474,4.687-3.311,6.5-4.353a4.3,4.3,0,0,1,3.933.259Zm-25.525,16.138h1.9v-1.9h-1.9Z" fill="#202020"/>
      <path id="Trazado_165" data-name="Trazado 165" d="M1149.7,10040.862l-.528-1.623-9.637-1.4-4.325-9.326h-1.725l-4.322,9.326-9.64,1.4-.527,1.623,6.985,6.81-1.651,9.613,1.381,1,8.638-4.537,8.636,4.537,1.381-1-1.652-9.613Zm-14.908,10.971h-.886l-7.374,3.875,1.41-8.206-.273-.844-5.964-5.813,8.242-1.2.726-.541,3.676-7.932,3.676,7.932.728.541,8.239,1.2-5.965,5.813-.272.844,1.409,8.205Zm13.6-1.063,3.806.951.463-1.846-3.807-.954Zm-2.345,2.6,2.853,2.854,1.348-1.344-2.856-2.855Zm-26.2-4.452-3.805.954.462,1.846,3.8-.951Zm-1.393,5.962,1.345,1.344,2.856-2.854-1.346-1.346Zm30.4-20.29,3.807-.95-.463-1.847-3.806.952Zm1.394-5.959-1.348-1.345-2.853,2.854,1.345,1.346Zm-29.94,4.114-3.8-.952-.462,1.847,3.805.95Zm2.346-2.605-2.856-2.854-1.345,1.345,2.855,2.854Z" fill="#202020"/>
    </g>
  </g>
</svg>
