<svg xmlns="http://www.w3.org/2000/svg" width="327.581" height="393.318" viewBox="0 0 327.581 393.318">
  <g id="Grupo_111" data-name="Grupo 111" transform="translate(-198.372 -9066.461)">
    <path id="Trazado_124" data-name="Trazado 124" d="M493.6,9459.779H198.372l32.35-86.075-32.35-86.075H493.6l32.35,86.075Z" fill="#fce8c8"/>
    <rect id="Rectángulo_54" data-name="Rectángulo 54" width="1.364" height="49.555" transform="translate(361.212 9222.214)" fill="#363636"/>
    <path id="Trazado_125" data-name="Trazado 125" d="M359.337,9271.769a2.557,2.557,0,1,1,2.557,2.558A2.557,2.557,0,0,1,359.337,9271.769Z" fill="#363636"/>
    <circle id="Elipse_17" data-name="Elipse 17" cx="69.32" cy="69.32" r="69.32" transform="translate(263.856 9164.494) rotate(-45)" fill="#ff3232"/>
    <circle id="Elipse_18" data-name="Elipse 18" cx="54.695" cy="54.695" r="54.695" transform="translate(307.199 9109.799)" fill="#fff"/>
    <g id="Grupo_88" data-name="Grupo 88">
      <g id="Grupo_87" data-name="Grupo 87">
        <path id="Trazado_128" data-name="Trazado 128" d="M359.48,9161.964q0,5.618-1.806,8.345a6.819,6.819,0,0,1-10.977-.088q-1.857-2.815-1.858-8.257,0-5.706,1.806-8.411a6.825,6.825,0,0,1,10.977.125Q359.48,9156.509,359.48,9161.964Zm-11.132,0a15.712,15.712,0,0,0,.907,6.3,3.169,3.169,0,0,0,5.809-.029,21.777,21.777,0,0,0,0-12.539,3.156,3.156,0,0,0-5.809-.037A15.825,15.825,0,0,0,348.348,9161.964Z" fill="#4c1000"/>
        <path id="Trazado_129" data-name="Trazado 129" d="M372.278,9172.742h-3.465v-13.918q0-2.492.118-3.951-.339.353-.833.781t-3.31,2.713l-1.74-2.2,6.34-4.984h2.89Z" fill="#4c1000"/>
      </g>
    </g>
    <text id="Estratégica_es_de_largo_plazo_ya_que_no_se_tiene_control_sobre_las_variables_después_de_un_largo_tiempo._" data-name="Estratégica, es de largo plazo ya que no se tiene control sobre las variables después de un largo tiempo.



  






" transform="translate(254.54 9324.392)" fill="#444242" font-size="16" font-family="OpenSans-Bold, Open Sans" font-weight="700"><tspan x="0" y="17">Estratégica</tspan><tspan y="17" font-family="OpenSans, Open Sans" font-weight="400">, es de largo plazo </tspan><tspan x="0" y="39" font-family="OpenSans, Open Sans" font-weight="400">ya que no se tiene control </tspan><tspan x="0" y="61" font-family="OpenSans, Open Sans" font-weight="400">sobre las variables después de </tspan><tspan x="0" y="83" font-family="OpenSans, Open Sans" font-weight="400">un largo tiempo.</tspan><tspan font-family="OpenSans, Open Sans" font-weight="400"><tspan x="0" y="105"></tspan></tspan></text>
  </g>
</svg>
