<svg xmlns="http://www.w3.org/2000/svg" width="563.335" height="871.713" viewBox="0 0 563.335 871.713">
  <g id="Grupo_109" data-name="Grupo 109" transform="translate(-154.874 -7895.567)">
    <path id="Trazado_4" data-name="Trazado 4" d="M328.471,7919.151l-21.092,21.092a14.841,14.841,0,0,1-20.925,0l-21.092-21.092H154.874V8767.28H438.959V7919.151Z" fill="#fce8c8"/>
    <path id="Trazado_5" data-name="Trazado 5" d="M611.482,7919.151l-20.374,21.092a13.991,13.991,0,0,1-20.212,0l-20.374-21.092H443.8V8767.28H718.209V7919.151Z" fill="#4c1000"/>
    <text id="El_método_de_análisis_de_juego_de_actores_Mactor_busca_valorar_las_relaciones_de_fuerza_entre_los_actores_y_estudiar_sus_convergencias_y_divergencias_con_respecto_a_un_cierto_número_de_posturas_y_de_objetivos_asociados._Existe_también_un_software_Sofwar" data-name="El método de análisis de juego de actores, Mactor busca valorar las relaciones de fuerza entre los actores y estudiar sus convergencias y divergencias con respecto a un cierto número de posturas y de objetivos asociados.

Existe también un software (Sofwar" transform="translate(175.625 8126.096)" fill="#444242" font-size="16" font-family="OpenSans, Open Sans"><tspan x="0" y="17">El </tspan><tspan y="17" font-family="OpenSans-Bold, Open Sans" font-weight="700">método de análisis de </tspan><tspan x="0" y="39" font-family="OpenSans-Bold, Open Sans" font-weight="700">juego de actores, Mactor </tspan><tspan x="0" y="61">busca valorar las relaciones de </tspan><tspan x="0" y="83">fuerza entre los actores y </tspan><tspan x="0" y="105">estudiar sus convergencias y </tspan><tspan x="0" y="127">divergencias con respecto a un </tspan><tspan x="0" y="149">cierto número de posturas y de </tspan><tspan x="0" y="171">objetivos asociados.</tspan><tspan x="0" y="193"></tspan><tspan x="0" y="215">Existe también un software </tspan><tspan x="0" y="237" font-family="OpenSans-Bold, Open Sans" font-weight="700">(Sofware MACTOR) </tspan><tspan y="237">que es un </tspan><tspan x="0" y="259">instrumento para poder </tspan><tspan x="0" y="281">diligenciar los formularios que </tspan><tspan x="0" y="303">se construyen siguiendo el </tspan><tspan x="0" y="325">método MACTOR.</tspan><tspan x="0" y="347">método.</tspan><tspan x="0" y="369"></tspan><tspan x="0" y="391" xml:space="preserve">  </tspan><tspan x="0" y="413"></tspan></text>
    <text id="A_partir_de_este_análisis_el_objetivo_de_la_utilización_del_método_Mactor_es_el_de_facilitar_a_un_actor_una_ayuda_para_la_decisión_de_la_puesta_en_marcha_de_su_política_de_alianzas_y_de_conflictos._En_el_siguiente_enlace_puede_revisar_el_website_del_sof" data-name="A partir de este análisis, el objetivo de la utilización del método Mactor es el de facilitar a un actor una ayuda para la decisión de la puesta en marcha de su política de alianzas y de conflictos.

En el siguiente enlace  puede revisar el website del sof" transform="translate(463.838 8126.096)" fill="#fff" font-size="16" font-family="OpenSans, Open Sans"><tspan x="0" y="17">A partir de este análisis, el </tspan><tspan x="0" y="39">objetivo de la utilización del </tspan><tspan x="0" y="61">método Mactor es el de facilitar </tspan><tspan x="0" y="83">a un actor una ayuda para la </tspan><tspan x="0" y="105">decisión de la puesta en </tspan><tspan x="0" y="127">marcha de su política de </tspan><tspan x="0" y="149">alianzas y de conflictos.</tspan><tspan x="0" y="171"></tspan><tspan x="0" y="193" xml:space="preserve">En el siguiente enlace  puede </tspan><tspan x="0" y="215">revisar el website del software:</tspan><tspan x="0" y="237"></tspan><tspan x="0" y="259" xml:space="preserve">  </tspan><tspan x="0" y="281"></tspan><tspan x="0" y="303"></tspan><tspan x="0" y="325"></tspan><tspan x="0" y="347"></tspan><tspan x="0" y="369"></tspan><tspan x="0" y="391"></tspan><tspan x="0" y="413"></tspan></text>
    <g id="Grupo_67" data-name="Grupo 67">
      <circle id="Elipse_10" data-name="Elipse 10" cx="18" cy="18" r="18" transform="translate(551.984 8412.193)" fill="red" opacity="0.8"/>
      <g id="Grupo_66" data-name="Grupo 66">
        <path id="Trazado_110" data-name="Trazado 110" d="M557.571,8425.869a13.139,13.139,0,0,0,0,8.648.805.805,0,0,0,.042.119,13.144,13.144,0,0,0,24.741,0,.805.805,0,0,0,.042-.119,13.139,13.139,0,0,0,0-8.648.835.835,0,0,0-.042-.118,13.144,13.144,0,0,0-24.741,0,.835.835,0,0,0-.042.118Zm12.413-6.937c.5,0,1.307.906,1.982,2.931a20.61,20.61,0,0,1,.776,3.32h-5.517a20.61,20.61,0,0,1,.776-3.32c.675-2.024,1.482-2.931,1.983-2.931Zm2.987,8.136c.09,1,.138,2.053.138,3.126s-.048,2.12-.138,3.125H567c-.09-1-.138-2.053-.138-3.125s.048-2.121.138-3.126Zm8.273,3.126a11.2,11.2,0,0,1-.442,3.125H574.86c.089-1.026.133-2.076.133-3.125s-.044-2.1-.133-3.126H580.8a11.2,11.2,0,0,1,.442,3.126Zm-11.26,11.26c-.5,0-1.308-.906-1.983-2.93a20.6,20.6,0,0,1-.776-3.321h5.517a20.6,20.6,0,0,1-.776,3.321c-.675,2.023-1.482,2.93-1.982,2.93Zm-4.877-8.135h-5.942a11.273,11.273,0,0,1,0-6.251h5.942c-.089,1.025-.133,2.075-.133,3.126s.044,2.1.133,3.125ZM559.9,8435.2h5.421a18.133,18.133,0,0,0,1.717,5.86,11.316,11.316,0,0,1-7.138-5.86Zm13.027,5.86a18.133,18.133,0,0,0,1.717-5.86h5.421a11.316,11.316,0,0,1-7.138,5.86Zm7.138-15.88h-5.421a18.126,18.126,0,0,0-1.717-5.859,11.314,11.314,0,0,1,7.138,5.859Zm-13.027-5.859a18.126,18.126,0,0,0-1.717,5.859H559.9a11.315,11.315,0,0,1,7.138-5.859Zm0,0" fill="#fff"/>
      </g>
    </g>
    <text id="https:_drive.google.com_file_d_11Jz_bbrg0vwoRAiw_5_l9PdhTi_6fnfh_view_usp_sharing" data-name="https://drive.google.com/file/d/11Jz_bbrg0vwoRAiw_5_l9PdhTi_6fnfh/view?usp=sharing" transform="translate(463.838 8456.493)" fill="#db9600" font-size="16" font-family="OpenSans-Italic, Open Sans" font-style="italic"><tspan x="0" y="17">https://drive.google.com/file/d/</tspan><tspan x="0" y="39">11Jz_bbrg0vwoRAiw_5_l9PdhTi_</tspan><tspan x="0" y="61">6fnfh/view?usp=sharing</tspan></text>
    <text id="Método_de_actores" data-name="Método de actores" transform="translate(209.921 8051.008)" fill="#444242" font-size="24" font-family="Montserrat-SemiBold, Montserrat" font-weight="600"><tspan x="20.456" y="23">Método de </tspan><tspan x="41.42" y="51.8">actores</tspan></text>
    <text id="Objetivo" transform="translate(487.865 8064.882)" fill="#fff" font-size="24" font-family="Montserrat-SemiBold, Montserrat" font-weight="600" opacity="0.9"><tspan x="34.604" y="23">Objetivo</tspan></text>
    <circle id="Elipse_13" data-name="Elipse 13" cx="10.113" cy="10.113" r="10.113" transform="translate(285.126 7915.483) rotate(-79.474)" fill="#ff3232"/>
    <circle id="Elipse_14" data-name="Elipse 14" cx="10.113" cy="10.113" r="10.113" transform="translate(569.181 7915.439) rotate(-79.258)" fill="#ff3232"/>
    <g id="Grupo_76" data-name="Grupo 76">
      <g id="Grupo_73" data-name="Grupo 73">
        <g id="Grupo_72" data-name="Grupo 72">
          <path id="Trazado_114" data-name="Trazado 114" d="M326.441,8020.174a.748.748,0,0,1-.338-.081l-8.762-4.429a29.849,29.849,0,0,1-8.87.406,20.106,20.106,0,0,1-7.2-2.183,10.61,10.61,0,0,1-2.32.435,23.867,23.867,0,0,1-3.828-.052,10.721,10.721,0,0,1-2.11-.474,8.744,8.744,0,0,1-.95.428,22.962,22.962,0,0,1-9.718,2,26.876,26.876,0,0,1-5.6-.561l-8.812,4.431a.75.75,0,0,1-1.056-.881l2.086-7.139c-.1-.072-.2-.146-.3-.224-3.756-2.92-5.671-6.568-5.671-10.826,0-4.19,1.914-7.82,5.686-10.79a21.649,21.649,0,0,1,13.665-4.41,22.29,22.29,0,0,1,10.8,2.572,9.125,9.125,0,0,1,1.947-.466,18.8,18.8,0,0,1,3.847-.1,15,15,0,0,1,2.263.442,23.615,23.615,0,0,1,24.193,1.961c3.781,2.976,5.7,6.606,5.7,10.8,0,4.258-1.915,7.906-5.69,10.842-.076.063-.156.126-.24.187l2,7.169a.75.75,0,0,1-.722.952Zm-9-6.05a.755.755,0,0,1,.339.08l7.481,3.783-1.692-6.061a.749.749,0,0,1,.35-.853,3.855,3.855,0,0,0,.542-.375c3.459-2.691,5.131-5.85,5.131-9.674,0-3.759-1.673-6.9-5.115-9.611a20.508,20.508,0,0,0-12.786-4.089,21.134,21.134,0,0,0-8.587,1.686,14.267,14.267,0,0,1,3.662,2.628,12.8,12.8,0,0,1,3.925,9.336,13.03,13.03,0,0,1-3.919,9.53,14.519,14.519,0,0,1-3.637,2.621,18.961,18.961,0,0,0,5.491,1.453,28.129,28.129,0,0,0,8.65-.436A.752.752,0,0,1,317.441,8014.124Zm-35.1-26.8a20.179,20.179,0,0,0-12.74,4.091c-3.438,2.706-5.111,5.85-5.111,9.609,0,3.824,1.672,6.984,5.111,9.658a3.016,3.016,0,0,0,.575.371.749.749,0,0,1,.384.881l-1.766,6.045,7.509-3.775a.747.747,0,0,1,.5-.062,25.168,25.168,0,0,0,5.535.582,21.693,21.693,0,0,0,8.817-1.737,14.037,14.037,0,0,1-7.118-12.013,12.8,12.8,0,0,1,3.92-9.331,14.194,14.194,0,0,1,3.385-2.474A21.319,21.319,0,0,0,282.342,7987.324Zm10.856,24.945.01,0a8.979,8.979,0,0,0,2.076.507,22.691,22.691,0,0,0,3.557.045,8.976,8.976,0,0,0,2.252-.459h0a12.591,12.591,0,0,0,4.623-2.928,11.424,11.424,0,0,0,3.473-8.463,11.2,11.2,0,0,0-3.48-8.27,12.2,12.2,0,0,0-4.647-2.916,13.337,13.337,0,0,0-2.262-.47,18.073,18.073,0,0,0-3.505.1,7.371,7.371,0,0,0-1.909.5l-.037.015-.006,0a12.063,12.063,0,0,0-4.33,2.78,11.2,11.2,0,0,0-3.474,8.264,11.432,11.432,0,0,0,3.481,8.47A11.034,11.034,0,0,0,293.2,8012.269Zm2.793-6.145a.753.753,0,0,1-.487-.18l-3.8-3.25a.75.75,0,1,1,.974-1.14l3.2,2.735,5.418-7.071a.75.75,0,0,1,1.191.912l-5.9,7.7a.753.753,0,0,1-.517.29C296.044,8006.122,296.017,8006.124,295.991,8006.124Z" fill="#333"/>
        </g>
      </g>
      <g id="Grupo_75" data-name="Grupo 75">
        <g id="Grupo_74" data-name="Grupo 74">
          <path id="Trazado_115" data-name="Trazado 115" d="M283.841,8044.774a1,1,0,0,1-1-.911c-.136-1.522-1.319-2.962-3.518-4.282a29.47,29.47,0,0,0-8.884-3.589,1,1,0,0,1-.616-.465,6.176,6.176,0,0,1,0-6.549,1,1,0,0,1,.222-.267A15.9,15.9,0,0,0,276,8018.356a1,1,0,0,1,1.987.236,17.782,17.782,0,0,1-6.507,11.525,4.174,4.174,0,0,0-.113,4.049,30.64,30.64,0,0,1,9.031,3.726c2.738,1.641,4.245,3.6,4.442,5.793a1,1,0,0,1-.908,1.085C283.9,8044.772,283.87,8044.774,283.841,8044.774Zm26.2,0-.072,0a1,1,0,0,1-.926-1.069c.157-2.2,1.63-4.161,4.378-5.833a32.1,32.1,0,0,1,9.088-3.7,4.311,4.311,0,0,0-.111-4.055,17.776,17.776,0,0,1-6.5-11.521,1,1,0,0,1,1.987-.236,15.9,15.9,0,0,0,5.953,10.355,1.006,1.006,0,0,1,.228.279,6.32,6.32,0,0,1,0,6.525,1,1,0,0,1-.622.477,30.9,30.9,0,0,0-8.956,3.571c-2.186,1.33-3.337,2.766-3.445,4.282A1,1,0,0,1,310.042,8044.774Zm35.948-.2a1,1,0,0,1-.984-.829c-.59-3.389-4.208-5.93-10.755-7.55a1,1,0,0,1-.554-.364,5.177,5.177,0,0,1-.005-6.757.956.956,0,0,1,.158-.167,17.081,17.081,0,0,0,6.349-11.063c.47-4.347-.425-7.67-2.737-10.136a10.5,10.5,0,0,0-7.384-3.586,1,1,0,0,1,.126-2,12.573,12.573,0,0,1,8.724,4.222c2.689,2.868,3.788,6.818,3.257,11.733a19,19,0,0,1-6.959,12.282,3.118,3.118,0,0,0-.137,3.98c7.163,1.839,11.161,4.886,11.888,9.059a1,1,0,0,1-.814,1.157A1.044,1.044,0,0,1,345.99,8044.574Zm-98.147,0a.935.935,0,0,1-.156-.013,1,1,0,0,1-.833-1.142c.654-4.183,4.668-7.235,11.933-9.075a3.228,3.228,0,0,0-.135-3.985,18.776,18.776,0,0,1-6.9-12.262c-.637-4.919.428-8.879,3.167-11.762a12.147,12.147,0,0,1,8.3-4.158,1,1,0,0,1,.155,1.994,10.093,10.093,0,0,0-6.984,3.522c-2.355,2.479-3.216,5.794-2.652,10.153a16.877,16.877,0,0,0,6.3,11.061.943.943,0,0,1,.165.176,5.258,5.258,0,0,1-.005,6.739,1.007,1.007,0,0,1-.564.374c-6.638,1.619-10.271,4.154-10.8,7.532A1,1,0,0,1,247.843,8044.574Z" fill="#333"/>
        </g>
      </g>
    </g>
    <g id="Grupo_82" data-name="Grupo 82">
      <g id="Grupo_79" data-name="Grupo 79">
        <g id="Grupo_77" data-name="Grupo 77">
          <g id="Layer1_2_MEMBER_0_FILL" data-name="Layer1 2 MEMBER 0 FILL">
            <path id="Trazado_116" data-name="Trazado 116" d="M612.191,8037.121q-.8.049-1.6.05l1.6,1.15Z" fill="#fff"/>
          </g>
        </g>
        <g id="Grupo_78" data-name="Grupo 78">
          <path id="Trazado_117" data-name="Trazado 117" d="M598.624,8063.22c-3.512-.148-5.562-1.309-6.156-3.448a7.121,7.121,0,0,1,1.147-6.315,2.82,2.82,0,0,0,.716-2.053,1.228,1.228,0,0,0-.674-.712l-6.28.724-4.283.3a.759.759,0,0,1-.778-.555,53.235,53.235,0,0,1-1.875-14.809c.115-.884.723-1.834,3-1.834a.723.723,0,0,1,.226.035,25.475,25.475,0,0,1,3.776,1.526,2.594,2.594,0,0,1,.961.332c1.782.85,3.261.325,4.617-1.665a7.3,7.3,0,0,0,.82-4.065,7.579,7.579,0,0,0-.88-4.056c-1.343-1.971-2.82-2.479-4.639-1.585a6.655,6.655,0,0,0-.785.414.776.776,0,0,1-.11.057c-1.143.471-2.438.948-3.849,1.419a.771.771,0,0,1-.237.038c-2.328,0-2.862-.988-2.9-1.816a52.581,52.581,0,0,1,1.672-14.82.743.743,0,0,1,.8-.56l4.3.45,6.265.433a1.29,1.29,0,0,0,.7-.754,2.828,2.828,0,0,0-.709-2.059,7.36,7.36,0,0,1-1.2-2.5,4.911,4.911,0,0,1-.332-1.773,6,6,0,0,1,.342-2,3.423,3.423,0,0,1,2.138-2.152,14.5,14.5,0,0,1,3.841-.5,19.056,19.056,0,0,1,3.926.425,3.488,3.488,0,0,1,1.916,1.623,4.218,4.218,0,0,1,.215.62,7.183,7.183,0,0,1,.307,1.083,7.449,7.449,0,0,1-1.469,5.176c-.686,1.093-.839,1.908-.438,2.394a.786.786,0,0,1,.093.143s.067.116.4.271l8.811-.784a.769.769,0,0,1,.573.194.75.75,0,0,1,.244.553v7.916l11.34-7.393a.749.749,0,0,1,.614-.094c4.457,1.264,8.875,2.621,13.132,4.035,6.118,2.031,12.108,4.247,17.809,6.585l4.747-.049a.774.774,0,0,1,.758.743.751.751,0,0,1-.743.757l-4.9.051a.637.637,0,0,1-.293-.057c-5.71-2.346-11.716-4.569-17.852-6.606-4.131-1.372-8.416-2.691-12.74-3.923l-11.871,7.74.043,7.137q.561-.062,1.168-.091a8.976,8.976,0,0,1,.927-.05,4.42,4.42,0,0,1,.6-.05,13.476,13.476,0,0,1,2.785-.1l.662-.083a5.521,5.521,0,0,1-1.774-3,.75.75,0,0,1,1.463-.328,4.385,4.385,0,0,0,2.608,3.051l4.512-.339a8.237,8.237,0,0,1-1.242-5.667.75.75,0,0,1,1.481.238,6.936,6.936,0,0,0,1.37,5.159l3.051-1.271a.75.75,0,1,1,.577,1.385l-3.594,1.5-.051.019a.729.729,0,0,1-.205.039l-5.964.448-2.781.348a1.081,1.081,0,0,1-.149,0,11.888,11.888,0,0,0-2.588.094c-.19.027-.388.016-.583.048-.344.057-.68.02-.991.054a16.816,16.816,0,0,0-1.909.2l-.021,0a41.675,41.675,0,0,0-6.076,1.5,4.571,4.571,0,0,0-.942,3.34,3.98,3.98,0,0,0,1.92,2.394c.537.052,1.325.077,2.346.077.44.036.786.051,1.1.051.515,0,1.03-.015,1.546-.049a.508.508,0,0,1,.054,0h.007q.88,0,1.907-.048a8.314,8.314,0,0,1,.936-.051c1.217-.1,2.549-.229,3.9-.4,1.17-.162,2.377-.377,3.588-.638a.759.759,0,0,1,.514.072,35.545,35.545,0,0,0,5.383,2.349l.019.006h0l.013,0a42.949,42.949,0,0,0,5.4,1.67c.658.164,1.257.294,1.809.392a35.518,35.518,0,0,0,6.319.588,39.041,39.041,0,0,0,13.343-3.235.774.774,0,0,1,.47-.048l4.5,1a.75.75,0,0,1-.326,1.465l-4.259-.946a40.672,40.672,0,0,1-13.678,3.262h-.027a36.907,36.907,0,0,1-6.607-.61c-.587-.1-1.227-.243-1.9-.411-1.237-.292-2.489-.649-3.737-1.065a12.363,12.363,0,0,1,.533,1.358c.078.336.137.562.2.742a.73.73,0,0,1,.036.173,3.236,3.236,0,0,1-.553,2.321.744.744,0,0,1-.68.288l-8.25-.949a.741.741,0,0,1-.349-.134l-3.11-2.215c-.233.229-.509.473-.832.736a.752.752,0,0,1-.93.013l-2.893-2.223v10.828a.751.751,0,0,1-.242.552.743.743,0,0,1-.571.195l-8.743-.732a1.306,1.306,0,0,0-.708.742,2.865,2.865,0,0,0,.646,2.09,6.584,6.584,0,0,1,1.178,6.244C603.921,8061.893,601.94,8063.071,598.624,8063.22Zm-4.833-14.049a.766.766,0,0,1,.312.068,2.8,2.8,0,0,1,1.674,1.763,4,4,0,0,1-.918,3.292,5.635,5.635,0,0,0-.955,5.043c.416,1.5,1.957,2.266,4.719,2.385,2.561-.119,4.037-.9,4.444-2.4a5.159,5.159,0,0,0-.981-4.959,4.115,4.115,0,0,1-.847-3.36,2.861,2.861,0,0,1,1.689-1.765.747.747,0,0,1,.375-.065l8.138.682v-11.151l-1.095-.787c-.286-.006-.592-.022-.919-.051a25.129,25.129,0,0,1-2.623-.1.756.756,0,0,1-.31-.109,5.5,5.5,0,0,1-2.737-3.452,6.161,6.161,0,0,1,1.315-4.708.75.75,0,0,1,.395-.292,48.758,48.758,0,0,1,5.92-1.523l-.046-7.756v-8.486l-8.184.728a.739.739,0,0,1-.345-.051,2.47,2.47,0,0,1-1.3-.979c-.806-1.034-.674-2.418.392-4.116a5.945,5.945,0,0,0,1.239-4.12,7.006,7.006,0,0,0-.259-.874,3.409,3.409,0,0,0-.142-.428,1.952,1.952,0,0,0-1.032-.833,19.135,19.135,0,0,0-3.45-.347,12.806,12.806,0,0,0-3.323.408,1.931,1.931,0,0,0-1.237,1.23,4.517,4.517,0,0,0-.261,1.513,3.419,3.419,0,0,0,.246,1.271.9.9,0,0,1,.035.111,5.871,5.871,0,0,0,.981,2.036,4.05,4.05,0,0,1,.927,3.3,2.852,2.852,0,0,1-1.665,1.806.786.786,0,0,1-.376.071l-6.5-.45-3.678-.385a50.859,50.859,0,0,0-1.471,13.76c.012.26.673.364,1.282.376,1.31-.439,2.512-.883,3.577-1.32a7.789,7.789,0,0,1,.886-.464c1.725-.85,4.281-1.184,6.526,2.113a8.852,8.852,0,0,1,1.13,4.872,8.531,8.531,0,0,1-1.076,4.916c-2.246,3.3-4.8,2.993-6.547,2.16a1.105,1.105,0,0,0-.477-.176.752.752,0,0,1-.343-.083,23.759,23.759,0,0,0-3.571-1.466c-.423.009-1.341.07-1.393.45a51.5,51.5,0,0,0,1.675,13.707l3.629-.256,6.467-.747A.846.846,0,0,1,593.791,8049.171Zm27.628-6.973,7.553.87a2.319,2.319,0,0,0,.078-.851q-.1-.305-.191-.733a12.835,12.835,0,0,0-1.17-2.493,37.085,37.085,0,0,1-5.109-2.229c-.962.2-1.92.376-2.859.518a6.819,6.819,0,0,1-1.157,2.884Zm-8.478-4.247,3.326,2.556a5.742,5.742,0,0,0,.634-.65l.018-.023.01-.01a5.379,5.379,0,0,0,1.227-2.345c-1.042.117-2.067.214-3.058.29a8.031,8.031,0,0,0-.875.047c-.459.023-.884.038-1.282.047Z" fill="#fff"/>
        </g>
      </g>
      <g id="Grupo_81" data-name="Grupo 81">
        <g id="Grupo_80" data-name="Grupo 80">
          <path id="Trazado_118" data-name="Trazado 118" d="M570.841,8052.671a.749.749,0,0,1-.647-.371c-.5-.855-.814-2.265.541-4.122a5.459,5.459,0,0,0,.893-4.924c-.468-1.484-1.975-2.245-4.613-2.333-2.65.118-4.193.9-4.659,2.375a5.479,5.479,0,0,0,1.095,4.889c1,1.519,1.236,2.827.715,3.911a.753.753,0,0,1-.738.422l-11.4-.95a.75.75,0,0,1-.687-.747v-11.91l-3.285,3.1a.749.749,0,0,1-.988.037c-.325-.264-.6-.509-.835-.739l-3.161,2.22a.738.738,0,0,1-.345.132l-8.2.949a.758.758,0,0,1-.659-.259,2.951,2.951,0,0,1-.571-2.382.833.833,0,0,1,.032-.14,6.677,6.677,0,0,0,.179-.676,11.177,11.177,0,0,1,.521-1.432c-1.249.417-2.513.778-3.766,1.074-.624.165-1.249.305-1.841.409a37.63,37.63,0,0,1-6.581.612,40.833,40.833,0,0,1-13.779-3.264l-4.258.946a.75.75,0,0,1-.326-1.465l4.5-1a.771.771,0,0,1,.47.048,39.184,39.184,0,0,0,13.443,3.237,36.3,36.3,0,0,0,6.268-.59c.552-.1,1.138-.229,1.74-.388a42.849,42.849,0,0,0,5.417-1.673c.022-.008.044-.016.067-.022a34.826,34.826,0,0,0,5.4-2.34.771.771,0,0,1,.514-.072c1.207.261,2.412.475,3.579.637l.022,0c1.343.164,2.658.3,3.9.4a8.331,8.331,0,0,1,.934.053c.662.028,1.318.044,1.908.044l.476.05q1.477-.051,2.224-.05c1.019,0,1.806-.025,2.343-.077a3.987,3.987,0,0,0,1.9-2.39,4.61,4.61,0,0,0-.919-3.345,48.151,48.151,0,0,0-5.641-1.439,2.425,2.425,0,0,1-.511-.071,17.217,17.217,0,0,0-1.854-.179q-.452-.056-7.1-.549l-.031,0-5.924-.449a.743.743,0,0,1-.255-.061l-3.636-1.494a.75.75,0,0,1,.571-1.387l3.1,1.272a7.19,7.19,0,0,0,1.375-5.17.75.75,0,0,1,1.485-.215,8.5,8.5,0,0,1-1.257,5.655l4.475.339a4.523,4.523,0,0,0,2.661-3.066.75.75,0,0,1,1.457.358,5.668,5.668,0,0,1-1.7,2.888c4.024.3,4.779.368,4.932.39.52.022,1.046.067,1.539.132l-.042-6.883-12.227-8.041a294.169,294.169,0,0,0-30.591,10.529.792.792,0,0,1-.292.056l-4.85-.051a.75.75,0,0,1,.015-1.5l4.7.049a296.156,296.156,0,0,1,30.939-10.62.76.76,0,0,1,.617.1l11.68,7.681-.042-7.65a.75.75,0,0,1,.67-.75l11.3-1.2a.742.742,0,0,1,.678.3c.707.94.532,2.239-.521,3.858a5.529,5.529,0,0,0-1.063,4.966c.468,1.515,2.011,2.307,4.718,2.427,2.6-.149,4.108-.953,4.547-2.461a5.39,5.39,0,0,0-1-4.964c-1.341-1.837-1.033-3.27-.536-4.147a.758.758,0,0,1,.717-.377l11.7,1a.75.75,0,0,1-.128,1.495l-11.162-.954a2.457,2.457,0,0,0,.632,2.115,6.871,6.871,0,0,1,1.205,6.279c-.62,2.135-2.632,3.326-5.97,3.512-3.444-.149-5.491-1.319-6.158-3.478a7,7,0,0,1,1.249-6.247,3.564,3.564,0,0,0,.689-1.769l-10.068,1.069.047,8.372v0l.046,7.525a55.037,55.037,0,0,1,5.527,1.46.749.749,0,0,1,.4.3,6.2,6.2,0,0,1,1.286,4.709,5.513,5.513,0,0,1-2.708,3.445.779.779,0,0,1-.313.11,25.147,25.147,0,0,1-2.687.1q-.549,0-1.5.028v12.232l10.091.842a3.434,3.434,0,0,0-.718-1.94,6.955,6.955,0,0,1-1.293-6.171c.673-2.14,2.719-3.291,6.087-3.439,3.363.11,5.379,1.246,6.048,3.373a6.97,6.97,0,0,1-1.091,6.241,2.469,2.469,0,0,0-.654,2.092l11.216-.954a.75.75,0,1,1,.127,1.494l-11.75,1Zm-36.064-10.438a1.942,1.942,0,0,0,.06.837l7.529-.872,2.9-2.038a6.827,6.827,0,0,1-1.153-2.88c-.944-.143-1.9-.317-2.859-.518a36.133,36.133,0,0,1-5.16,2.23,11.087,11.087,0,0,0-1.13,2.535C534.907,8041.781,534.842,8042.027,534.777,8042.233Zm12.125-2.41a.321.321,0,0,1,.025.03,5.458,5.458,0,0,0,.589.609l2.768-2.616c-.217-.007-.444-.016-.677-.026a7.24,7.24,0,0,0-.866-.049c-1.009-.077-2.027-.175-3.065-.291A5.381,5.381,0,0,0,546.9,8039.823Z" fill="#fff"/>
        </g>
      </g>
    </g>
  </g>
</svg>
