<svg xmlns="http://www.w3.org/2000/svg" width="547.443" height="410.349" viewBox="0 0 547.443 410.349">
  <g id="Grupo_114" data-name="Grupo 114" transform="translate(-721.484 -9698.102)">
    <g id="Grupo_93" data-name="Grupo 93">
      <path id="Trazado_137" data-name="Trazado 137" d="M953.808,9797.458c-18.442,0-32.079-12.728-33.118-30.781h17.4c1.169,9.091,7.273,14.937,15.585,14.937,8.7,0,15.066-6.754,15.066-15.976,0-9.74-7.4-16.1-18.832-16.1h-2.857v-16.624c10.909-.26,14.806-3.247,14.806-9.871,0-5.325-3.507-9.091-8.443-9.091-4.675,0-7.273,2.727-8.052,8.7H927.833c1.3-16.235,12.078-24.548,25.456-24.548,14.806,0,25.845,11.039,25.845,25.846,0,7.4-2.468,12.469-8.052,16.5,9.87,4.416,14.936,12.728,14.936,24.806C986.018,9783.821,972.381,9797.458,953.808,9797.458Z" fill="#db9600"/>
    </g>
    <path id="Trazado_157" data-name="Trazado 157" d="M722.678,10108.052a1.2,1.2,0,0,1-1.194-1.194V9919.731a1.194,1.194,0,1,1,2.388,0v187.126A1.2,1.2,0,0,1,722.678,10108.052Z" fill="#202020"/>
    <path id="Trazado_158" data-name="Trazado 158" d="M722.678,9890.667a1.2,1.2,0,0,1-1.194-1.194V9702.347a1.194,1.194,0,1,1,2.388,0v187.126A1.2,1.2,0,0,1,722.678,9890.667Z" fill="#202020"/>
    <path id="Trazado_133" data-name="Trazado 133" d="M757.5,9905.4l-35.036-35.036v3.186h0v16.721L736.8,9905.4l-14.333,15.926v15.926h0v3.982Z" fill="#ff3232"/>
    <path id="Trazado_140" data-name="Trazado 140" d="M722.678,9920.926a1.194,1.194,0,0,1-.845-2.039l14.285-14.285-14.285-14.284a1.194,1.194,0,0,1,1.689-1.689l15.13,15.13a1.2,1.2,0,0,1,0,1.689l-15.13,15.129A1.191,1.191,0,0,1,722.678,9920.926Z" fill="#202020"/>
    <text id="El_pesimista" data-name="El pesimista" transform="translate(765.438 9770.264)" fill="#444242" stroke="#444242" stroke-miterlimit="10" stroke-width="2" font-size="24" font-family="Montserrat-ExtraLight, Montserrat" font-weight="200"><tspan x="0" y="23">El pesimista</tspan></text>
    <text id="Tiene_en_cuenta_lo_peor_ya_que_no_podemos_desdeñar_las_posibilidades_negativas_en_nuestra_planeación._" data-name="Tiene en cuenta lo peor ya que no podemos desdeñar las posibilidades negativas en nuestra planeación.


  






" transform="translate(766.688 9832.494)" fill="#444242" font-size="16" font-family="OpenSans, Open Sans"><tspan x="0" y="17">Tiene en cuenta lo peor </tspan><tspan x="0" y="39">ya que no podemos </tspan><tspan x="0" y="61">desdeñar las </tspan><tspan x="0" y="83">posibilidades negativas </tspan><tspan x="0" y="105">en nuestra planeación.</tspan><tspan x="0" y="127"></tspan><tspan x="0" y="149"></tspan></text>
    <g id="Grupo_98" data-name="Grupo 98" opacity="0.7">
      <path id="Trazado_162" data-name="Trazado 162" d="M856.893,10074.032c2.231-2.084,4.338-4.055,4.338-6.334l1.1-1.1h4.391v2.2h-3.4c-.5,2.692-2.742,4.8-4.929,6.839-2.494,2.33-4.848,4.53-4.848,7.441v10.983l-1.1,1.1c-2.756,0-5.345-2.434-7.1-6.676-2.151-5.191-2.723-12.159-.5-16.392H830.6a40.991,40.991,0,0,0-7.812-14.273,5.441,5.441,0,0,0,1.22-8.789,5.534,5.534,0,0,1,1.606-3.943,5.257,5.257,0,0,1,2.706-1.446,5.733,5.733,0,0,1-1.016-3.4,5.144,5.144,0,0,1,5.493-5.49h15.256c1.543,0,9.418.172,12.858,3.615l-.083-.073,4.088,3.326h1.807v2.2h-2.2l-.694-.245-4.394-3.577-.083-.075c-2.053-2.054-7.156-2.973-11.3-2.973H832.795a2.971,2.971,0,0,0-3.295,3.293,2.973,2.973,0,0,0,3.295,3.3h.978v2.2h-4.394a3.1,3.1,0,0,0-2.212.907,3.343,3.343,0,0,0-.961,2.39,3.3,3.3,0,0,0,3.294,3.295h4.273v2.194h-5.49a3.3,3.3,0,1,0,0,6.592h2.3l.019,0,3.174,0v2.2l-2.073,0v0h-1.121a3.294,3.294,0,0,0,.021,6.588h16.353l.776,1.875c-2.933,2.936-2.554,10.575-.358,15.872,1.1,2.656,2.531,4.438,3.976,5.062v-9.626C851.346,10079.212,854.292,10076.459,856.893,10074.032Z" fill="#202020"/>
      <path id="Trazado_163" data-name="Trazado 163" d="M881,10068.8H870.02v-27.18H881v-2.193H868.919l-1.1,1.1v29.372l1.1,1.1H881Zm-6.589-24.162v2.194h2.2v-2.194Z" fill="#202020"/>
    </g>
    <g id="Grupo_94" data-name="Grupo 94">
      <path id="Trazado_138" data-name="Trazado 138" d="M1244.589,9783.368v14.416h-17.274v-14.416h-41.43v-14.027l44.158-67.536h14.546v66.108h10.13v15.455Zm-17.274-52.47-23.9,37.015h23.9Z" fill="#db9600"/>
    </g>
    <path id="Trazado_161" data-name="Trazado 161" d="M1267.732,10108.45a1.2,1.2,0,0,1-1.194-1.2v-404.51a1.195,1.195,0,0,1,2.389,0v404.51A1.2,1.2,0,0,1,1267.732,10108.45Z" fill="#202020"/>
    <text id="Tendencial" transform="translate(1023.098 9770.264)" fill="#444242" stroke="#444242" stroke-miterlimit="10" stroke-width="2" font-size="24" font-family="Montserrat-ExtraLight, Montserrat" font-weight="200"><tspan x="0" y="23">Tendencial</tspan></text>
    <text id="Que_ocurriría_si_no_hacemos_nada_para_corregir_las_cosas_que_no_están_funcionando_entonces_la_situación_tiende_a_empeorar._es_cercano_al_pesimista_._" data-name="Que ocurriría si no hacemos nada para corregir las cosas que no están funcionando, entonces la situación tiende a empeorar. (es cercano al pesimista).


  






" transform="translate(1036.191 9832.494)" fill="#444242" font-size="16" font-family="OpenSans, Open Sans"><tspan x="0" y="17">Que ocurriría si no </tspan><tspan x="0" y="39">hacemos nada para </tspan><tspan x="0" y="61">corregir las cosas que </tspan><tspan x="0" y="83">no están funcionando, </tspan><tspan x="0" y="105">entonces la situación </tspan><tspan x="0" y="127">tiende a empeorar. (es </tspan><tspan x="0" y="149">cercano al pesimista).</tspan><tspan x="0" y="171"></tspan></text>
    <path id="Trazado_134" data-name="Trazado 134" d="M1029.832,9905.4,994.8,9870.362v3.186h0v16.721l14.333,15.13L994.8,9921.324v15.926h0v3.982Z" fill="#ff3232"/>
    <path id="Trazado_141" data-name="Trazado 141" d="M995.006,9920.926a1.194,1.194,0,0,1-.845-2.039l14.285-14.285-14.285-14.284a1.194,1.194,0,0,1,1.689-1.689l15.13,15.13a1.2,1.2,0,0,1,0,1.689l-15.13,15.129A1.191,1.191,0,0,1,995.006,9920.926Z" fill="#202020"/>
    <path id="Trazado_159" data-name="Trazado 159" d="M995.006,10108.052a1.2,1.2,0,0,1-1.194-1.194V9919.731a1.194,1.194,0,1,1,2.388,0v187.126A1.2,1.2,0,0,1,995.006,10108.052Z" fill="#202020"/>
    <path id="Trazado_160" data-name="Trazado 160" d="M995.006,9890.667a1.2,1.2,0,0,1-1.194-1.194V9702.347a1.194,1.194,0,1,1,2.388,0v187.126A1.2,1.2,0,0,1,995.006,9890.667Z" fill="#202020"/>
    <g id="Grupo_99" data-name="Grupo 99" opacity="0.7">
      <path id="Trazado_164" data-name="Trazado 164" d="M1156.378,10055.635c-1.891,1.086-4.529,2.949-6.65,4.447l-1.287.9a5.824,5.824,0,0,0-4.806-.056,51.7,51.7,0,0,0-6.648,3.54,20.081,20.081,0,0,0-10.27-2.256h-5.693c-9.6,0-17.125,7.1-17.125,16.177h0v8.563h1.9v-3.806h17.128v3.806h1.9v-4.757c-.009-2.806,1.085-3.03,4.878-3.383,3.874-.359,9.73-.9,16.158-6.54-.032.027,17.618-14.073,17.618-14.073l.022-1.469C1162.094,10055.537,1158.91,10054.181,1156.378,10055.635Zm-11.732,15.182c-6,5.257-11.266,5.745-15.114,6.1-3.289.3-6.158.579-6.553,4.327H1105.8l0-2.854,0,0c0-8,6.689-14.27,15.224-14.27h5.711a18.06,18.06,0,0,1,9.808,2.27l.984-.018a50.5,50.5,0,0,1,6.87-3.7,3.991,3.991,0,0,1,3.464.15l-9.822,6.79c-2.075,1.165-5.932,1.165-8.486,1.165a13.582,13.582,0,0,0-5.152,1.038l.791,1.73h0a11.81,11.81,0,0,1,4.364-.867c2.752,0,6.91,0,9.494-1.455.074-.046,11.019-7.611,11.019-7.611l.133-1.456a.558.558,0,0,0-.05-.047l.677-.475c2.089-1.474,4.687-3.311,6.5-4.353a4.3,4.3,0,0,1,3.933.259Zm-25.525,16.138h1.9v-1.9h-1.9Z" fill="#202020"/>
      <path id="Trazado_165" data-name="Trazado 165" d="M1149.7,10040.862l-.528-1.623-9.637-1.4-4.325-9.326h-1.725l-4.322,9.326-9.64,1.4-.527,1.623,6.985,6.81-1.651,9.613,1.381,1,8.638-4.537,8.636,4.537,1.381-1-1.652-9.613Zm-14.908,10.971h-.886l-7.374,3.875,1.41-8.206-.273-.844-5.964-5.813,8.242-1.2.726-.541,3.676-7.932,3.676,7.932.728.541,8.239,1.2-5.965,5.813-.272.844,1.409,8.205Zm13.6-1.063,3.806.951.463-1.846-3.807-.954Zm-2.345,2.6,2.853,2.854,1.348-1.344-2.856-2.855Zm-26.2-4.452-3.805.954.462,1.846,3.8-.951Zm-1.393,5.962,1.345,1.344,2.856-2.854-1.346-1.346Zm30.4-20.29,3.807-.95-.463-1.847-3.806.952Zm1.394-5.959-1.348-1.345-2.853,2.854,1.345,1.346Zm-29.94,4.114-3.8-.952-.462,1.847,3.805.95Zm2.346-2.605-2.856-2.854-1.345,1.345,2.855,2.854Z" fill="#202020"/>
    </g>
  </g>
</svg>
