<svg xmlns="http://www.w3.org/2000/svg" width="36" height="36" viewBox="0 0 36 36">
  <g id="Grupo_107" data-name="Grupo 107" transform="translate(-169.946 -5708.124)">
    <circle id="Elipse_9" data-name="Elipse 9" cx="18" cy="18" r="18" transform="translate(169.946 5708.124)" fill="red" opacity="0.8"/>
    <g id="Grupo_61" data-name="Grupo 61" transform="translate(-23 -5)">
      <path id="Trazado_89" data-name="Trazado 89" d="M198.534,5726.8a13.141,13.141,0,0,0,0,8.649.954.954,0,0,0,.041.119,13.145,13.145,0,0,0,24.742,0,.816.816,0,0,0,.042-.119,13.141,13.141,0,0,0,0-8.649.97.97,0,0,0-.042-.118,13.144,13.144,0,0,0-24.742,0,.968.968,0,0,0-.041.118Zm12.412-6.936c.5,0,1.308.906,1.983,2.93a20.735,20.735,0,0,1,.776,3.321h-5.517a20.627,20.627,0,0,1,.776-3.321c.675-2.024,1.482-2.93,1.982-2.93Zm2.987,8.135c.091,1,.139,2.053.139,3.126s-.048,2.12-.139,3.125h-5.974c-.09-1-.138-2.052-.138-3.125s.048-2.121.138-3.126Zm8.274,3.126a11.2,11.2,0,0,1-.442,3.125h-5.942c.089-1.025.133-2.076.133-3.125s-.044-2.1-.133-3.126h5.942a11.208,11.208,0,0,1,.442,3.126Zm-11.261,11.26c-.5,0-1.307-.906-1.982-2.93a20.572,20.572,0,0,1-.776-3.321h5.517a20.679,20.679,0,0,1-.776,3.321c-.675,2.024-1.482,2.93-1.983,2.93Zm-4.877-8.135h-5.941a11.272,11.272,0,0,1,0-6.251h5.941c-.088,1.026-.132,2.077-.132,3.126s.044,2.1.132,3.125Zm-5.205,1.884h5.421a18.119,18.119,0,0,0,1.717,5.86,11.308,11.308,0,0,1-7.138-5.86Zm13.027,5.86a18.1,18.1,0,0,0,1.716-5.86h5.422a11.313,11.313,0,0,1-7.138,5.86Zm7.138-15.879h-5.422a18.1,18.1,0,0,0-1.716-5.859,11.315,11.315,0,0,1,7.138,5.859ZM208,5720.255a18.12,18.12,0,0,0-1.717,5.859h-5.421a11.31,11.31,0,0,1,7.138-5.859Zm0,0" fill="#fff"/>
    </g>
  </g>
</svg>
