<svg xmlns="http://www.w3.org/2000/svg" width="57.144" height="65.307" viewBox="0 0 57.144 65.307">
  <g id="Grupo_106" data-name="Grupo 106" transform="translate(-534 -4686.771)">
    <path id="Trazado_76" data-name="Trazado 76" d="M546.245,4686.771a4.094,4.094,0,0,0-4.082,4.081V4748a4.1,4.1,0,0,0,4.082,4.082h40.817a4.094,4.094,0,0,0,4.082-4.082v-44.9l-16.327-16.327Z" fill="#f2f2f2"/>
    <path id="Rectángulo_38" data-name="Rectángulo 38" d="M2.041,0h44.9a2.041,2.041,0,0,1,2.041,2.041V22.45a2.04,2.04,0,0,1-2.04,2.04H2.041A2.041,2.041,0,0,1,0,22.449V2.041A2.041,2.041,0,0,1,2.041,0Z" transform="translate(534 4717.384)" fill="red" opacity="0.9"/>
    <path id="Trazado_77" data-name="Trazado 77" d="M556.023,4726.451v7.311h2.708c4.406,0,4.6-7.311,0-7.311Zm-1.021,9.3a1.021,1.021,0,0,1-1.121-.908c0-.038-.005-.075-.005-.112v-9.27a1.109,1.109,0,0,1,1.126-1.02h3.737c7.458,0,7.294,11.292.147,11.292Z" fill="#fff"/>
    <path id="Trazado_78" data-name="Trazado 78" d="M568.678,4726.588v2.594h4.161a1.26,1.26,0,0,1,1.176,1.157,1.136,1.136,0,0,1-1.176.98h-4.161v3.426a.966.966,0,0,1-.923,1.009.5.5,0,0,1-.054,0,1.037,1.037,0,0,1-1.151-.909c0-.033-.006-.067-.007-.1v-9.269a1.032,1.032,0,0,1,1.033-1.029,1.075,1.075,0,0,1,.125.008h5.728a1.021,1.021,0,0,1,1.136.891,1.115,1.115,0,0,1-1.135,1.24h-4.752Z" fill="#fff"/>
    <path id="Trazado_79" data-name="Trazado 79" d="M578.9,4703.1h12.245l-16.327-16.327v12.245A4.1,4.1,0,0,0,578.9,4703.1Z" fill="#b3b3b3"/>
    <path id="Trazado_80" data-name="Trazado 80" d="M544.316,4725.962v4.066h2.725a2.041,2.041,0,0,0,0-4.066Zm-2.153-.928a1.123,1.123,0,0,1,1.108-1.127h3.77a4.082,4.082,0,0,1,0,8.164h-2.723v2.155a1.019,1.019,0,0,1-.91,1.119.892.892,0,0,1-.135,0,1.1,1.1,0,0,1-1.108-1.091v-.033Z" fill="#fff"/>
    <path id="Trazado_81" data-name="Trazado 81" d="M580.94,4742.874H542.163v2.041H580.94a2.041,2.041,0,0,0,2.041-2.041v-2.041A2.041,2.041,0,0,1,580.94,4742.874Z" fill="#e6e6e6"/>
  </g>
</svg>
