<svg xmlns="http://www.w3.org/2000/svg" width="18.119" height="18.119" viewBox="0 0 18.119 18.119">
  <g id="Grupo_116" data-name="Grupo 116" transform="translate(-188.992 -11204.06)">
    <g id="Grupo_10" data-name="Grupo 10">
      <circle id="Elipse_1" data-name="Elipse 1" cx="9.059" cy="9.059" r="9.059" transform="translate(188.992 11204.06)" fill="#ff3232"/>
      <path id="Trazado_8" data-name="Trazado 8" d="M198.052,11213.633a1.854,1.854,0,1,0-1.879-1.828A1.865,1.865,0,0,0,198.052,11213.633Zm0-6.449a4.692,4.692,0,0,1,4.672,4.672c0,2.438-2.793,5.13-4.317,7.009a.427.427,0,0,1-.711,0c-1.523-1.879-4.316-4.571-4.316-7.009A4.66,4.66,0,0,1,198.052,11207.184Z" fill="#fff" fill-rule="evenodd"/>
    </g>
  </g>
</svg>
