<svg xmlns="http://www.w3.org/2000/svg" width="317.544" height="306.128" viewBox="0 0 317.544 306.128">
  <g id="Grupo_104" data-name="Grupo 104" transform="translate(-1012.332 -79.988)">
    <circle id="Elipse_5" data-name="Elipse 5" cx="141.113" cy="141.113" r="141.113" transform="translate(1029.991 94.067)" fill="#600a0a"/>
    <path id="Trazado_12" data-name="Trazado 12" d="M1319.388,299.133a147.65,147.65,0,0,0,8.17-80.814,155.694,155.694,0,0,0-39.6-78.246c-.4-.567-.785-1.139-1.2-1.712-36.392-50.1-112.356-64.161-166.19-37.464a137.161,137.161,0,0,0-69.311,57.015c-25.508,41.6-31.042,101.406-10.575,145.347a165.037,165.037,0,0,1-16.814-36.931c-10.519-33.491-10.019-72.46,4.564-104.7,25.158-55.447,97.553-82.5,94.282-81.615-34.923,9.511-64.739,30.756-83.744,57a141.3,141.3,0,0,0-26.034,95.93c6.295,68.041,64.648,135.637,132.392,149.81,33.825,7.055,73.595,3.011,105.114-11.918C1280.368,356.63,1305.993,332.1,1319.388,299.133ZM1064.073,149.277a136.6,136.6,0,0,1,9.482-10.71c-37.109,44.876-43.924,111.178-5.111,160.843.1.117.213,0,.117-.121-43.248-56.572-22.164-140.5,30.76-181.417,59.324-36.531,148.18-19.253,192.985,34.06,18.419,32.357,22.486,73.377,12.672,109.818-11.667,43.22-42.05,84.482-82.9,102.771-37.714,16.854-88.663,15.229-124.912-5.6q-6.612-3.93-12.849-8.471c-29.317-22.06-47.154-56.517-51.069-92.42C1029.184,220.31,1040.442,179.179,1064.073,149.277Zm209.2-22.756A149.152,149.152,0,0,0,1258.8,116.2c-32.914-20.491-73.774-28.663-110.856-22.572,3.008-.8,6.036-1.516,9.1-2.106C1197.863,83.7,1244.173,96.733,1273.271,126.521Zm-47.9,250.507a168.316,168.316,0,0,1-77,1.857c40.351,4.618,85.01-9.185,114.985-38.521,44.181-43.338,62.836-119.414,38.1-176.251a141.22,141.22,0,0,1,10.813,19.048c16.545,35.49,19.5,79.58,4.314,115.757C1300.421,337.3,1265.427,366.49,1225.37,377.028Z" fill="#4c0808"/>
    <g id="Grupo_30" data-name="Grupo 30" opacity="0.8">
      <path id="Trazado_13" data-name="Trazado 13" d="M1202.586,160.743h31.443c0-.028.005-.057.005-.086a6.31,6.31,0,0,0-8.03-6.082,9.278,9.278,0,0,0-18.468,1.27c0,.021,0,.039,0,.06A5.659,5.659,0,0,0,1202.586,160.743Z" fill="#fff"/>
      <g id="Grupo_14" data-name="Grupo 14">
        <path id="Trazado_14" data-name="Trazado 14" d="M1110.6,234.908a14.829,14.829,0,1,1-14.83-14.827A14.831,14.831,0,0,1,1110.6,234.908Z" fill="#fff"/>
      </g>
      <g id="Grupo_15" data-name="Grupo 15">
        <path id="Trazado_15" data-name="Trazado 15" d="M1123.477,293.033a3.573,3.573,0,1,0,3.574-3.572A3.574,3.574,0,0,0,1123.477,293.033Z" fill="#fff"/>
      </g>
      <g id="Grupo_16" data-name="Grupo 16">
        <path id="Trazado_16" data-name="Trazado 16" d="M1119.19,272.71a6.923,6.923,0,1,0,6.922-6.922A6.923,6.923,0,0,0,1119.19,272.71Z" fill="#fff"/>
      </g>
      <g id="Grupo_17" data-name="Grupo 17">
        <path id="Trazado_17" data-name="Trazado 17" d="M1112.312,283.653a2.232,2.232,0,1,0,2.232-2.232A2.233,2.233,0,0,0,1112.312,283.653Z" fill="#fff"/>
      </g>
      <g id="Grupo_18" data-name="Grupo 18">
        <line id="Línea_1" data-name="Línea 1" y1="6.866" transform="translate(1095.739 200.435)" fill="none" stroke="#fff" stroke-width="4"/>
        <line id="Línea_2" data-name="Línea 2" x1="3.433" y1="5.946" transform="translate(1077.799 205.19)" fill="none" stroke="#fff" stroke-width="4"/>
        <line id="Línea_3" data-name="Línea 3" x1="5.946" y1="3.434" transform="translate(1064.643 218.279)" fill="none" stroke="#fff" stroke-width="4"/>
        <line id="Línea_4" data-name="Línea 4" x1="6.866" transform="translate(1059.792 236.193)" fill="none" stroke="#fff" stroke-width="4"/>
        <line id="Línea_5" data-name="Línea 5" x1="5.947" y2="3.432" transform="translate(1064.549 250.7)" fill="none" stroke="#fff" stroke-width="4"/>
        <line id="Línea_6" data-name="Línea 6" x1="3.435" y2="5.948" transform="translate(1077.637 261.342)" fill="none" stroke="#fff" stroke-width="4"/>
        <line id="Línea_7" data-name="Línea 7" x1="0.002" y2="6.868" transform="translate(1095.552 265.273)" fill="none" stroke="#fff" stroke-width="4"/>
        <line id="Línea_8" data-name="Línea 8" x2="3.432" y2="5.948" transform="translate(1110.06 261.435)" fill="none" stroke="#fff" stroke-width="4"/>
        <line id="Línea_9" data-name="Línea 9" x2="5.946" y2="3.436" transform="translate(1120.702 250.859)" fill="none" stroke="#fff" stroke-width="4"/>
        <line id="Línea_10" data-name="Línea 10" x2="6.865" y2="0.002" transform="translate(1124.633 236.378)" fill="none" stroke="#fff" stroke-width="4"/>
        <line id="Línea_11" data-name="Línea 11" y1="3.43" x2="5.948" transform="translate(1120.794 218.442)" fill="none" stroke="#fff" stroke-width="4"/>
        <line id="Línea_12" data-name="Línea 12" y1="5.942" x2="3.434" transform="translate(1110.218 205.285)" fill="none" stroke="#fff" stroke-width="4"/>
      </g>
      <g id="Grupo_20" data-name="Grupo 20">
        <path id="Trazado_18" data-name="Trazado 18" d="M1146.3,294.659h14.849a8.792,8.792,0,0,1,1.3-4.407c5.48-7.055,5.83-13.778,5.83-14.254a14.546,14.546,0,0,0-29.091,0c0,.476.341,7.194,5.827,14.254A8.73,8.73,0,0,1,1146.3,294.659Z" fill="none" stroke="#fff" stroke-width="4"/>
        <g id="Grupo_19" data-name="Grupo 19">
          <line id="Línea_13" data-name="Línea 13" x2="18.914" transform="translate(1144.281 294.831)" fill="none" stroke="#fff" stroke-width="4"/>
          <line id="Línea_14" data-name="Línea 14" x2="18.914" transform="translate(1144.281 300.333)" fill="none" stroke="#fff" stroke-width="4"/>
          <line id="Línea_15" data-name="Línea 15" x2="13.771" transform="translate(1146.853 305.854)" fill="none" stroke="#fff" stroke-width="4"/>
          <line id="Línea_16" data-name="Línea 16" y1="5.488" transform="translate(1147.091 295.026)" fill="none" stroke="#fff" stroke-width="4"/>
        </g>
      </g>
      <path id="Trazado_19" data-name="Trazado 19" d="M1290.434,220.626l-6.8-16.106-14.815,4.851A47.334,47.334,0,0,0,1257,197.129l4.791-15.332-16.193-6.582-7.046,13.9a47.488,47.488,0,0,0-17.01-.287l-7.458-14.241-16.1,6.8,4.851,14.819a47.309,47.309,0,0,0-12.241,11.819l-15.339-4.791-6.579,16.194,13.906,7.043a47.219,47.219,0,0,0-.29,17.011l-14.242,7.46,6.8,16.1,14.821-4.846a47.258,47.258,0,0,0,11.817,12.238l-4.794,15.338,16.192,6.581,7.051-13.9a47.274,47.274,0,0,0,17.009.288l7.458,14.237,16.1-6.8-4.848-14.818a47.256,47.256,0,0,0,12.237-11.818l15.334,4.793,6.584-16.194-13.9-7.047a47.356,47.356,0,0,0,.29-17.011Zm-53.651,33.017a19.387,19.387,0,1,1,10.316-25.4A19.388,19.388,0,0,1,1236.783,253.643Z" fill="none" stroke="#fff" stroke-width="4"/>
      <g id="Grupo_21" data-name="Grupo 21">
        <line id="Línea_17" data-name="Línea 17" x1="2.502" transform="translate(1184.956 256.586)" fill="none" stroke="#fff" stroke-width="4" stroke-dasharray="6"/>
        <path id="Trazado_20" data-name="Trazado 20" d="M1179.874,256.586h-84.8a21.29,21.29,0,0,1,0-42.581h89.766" fill="none" stroke="#fff" stroke-width="4" stroke-dasharray="6"/>
        <line id="Línea_18" data-name="Línea 18" x2="2.502" transform="translate(1187.383 214.005)" fill="none" stroke="#fff" stroke-width="4" stroke-dasharray="6"/>
      </g>
      <g id="Grupo_22" data-name="Grupo 22">
        <line id="Línea_19" data-name="Línea 19" x2="2.502" transform="translate(1189.522 214.009)" fill="none" stroke="#fff" stroke-width="4" stroke-dasharray="6"/>
        <path id="Trazado_21" data-name="Trazado 21" d="M1197.11,214.009h34.015a21.29,21.29,0,1,1,0,42.581h-38.983" fill="none" stroke="#fff" stroke-width="4" stroke-dasharray="6"/>
        <line id="Línea_20" data-name="Línea 20" x1="2.502" transform="translate(1187.097 256.59)" fill="none" stroke="#fff" stroke-width="4" stroke-dasharray="6"/>
      </g>
      <g id="Grupo_23" data-name="Grupo 23">
        <path id="Trazado_22" data-name="Trazado 22" d="M1099.279,175.838a6.149,6.149,0,0,1,12.3,0" fill="none" stroke="#fff" stroke-width="4"/>
        <path id="Trazado_23" data-name="Trazado 23" d="M1087.085,175.838a6.15,6.15,0,0,1,12.3,0" fill="none" stroke="#fff" stroke-width="4"/>
      </g>
      <g id="Grupo_24" data-name="Grupo 24">
        <path id="Trazado_24" data-name="Trazado 24" d="M1190.4,271.1a7.069,7.069,0,0,1-14.138,0" fill="none" stroke="#fff" stroke-width="4"/>
        <path id="Trazado_25" data-name="Trazado 25" d="M1204.42,271.1a7.07,7.07,0,0,1-14.139,0" fill="none" stroke="#fff" stroke-width="4"/>
        <path id="Trazado_26" data-name="Trazado 26" d="M1218.437,271.1a7.068,7.068,0,0,1-14.137,0" fill="none" stroke="#fff" stroke-width="4"/>
        <path id="Trazado_27" data-name="Trazado 27" d="M1232.455,271.1a7.069,7.069,0,0,1-14.139,0" fill="none" stroke="#fff" stroke-width="4"/>
        <path id="Trazado_28" data-name="Trazado 28" d="M1246.473,271.1a7.068,7.068,0,0,1-14.137,0" fill="none" stroke="#fff" stroke-width="4"/>
      </g>
      <path id="Trazado_29" data-name="Trazado 29" d="M1187.057,176.377a6.536,6.536,0,0,0,.09-.916,6.295,6.295,0,0,0-8.354-6.029,13.2,13.2,0,0,0-13.052-11.277,13.355,13.355,0,0,0-2.835.314,16.136,16.136,0,0,0-27.651,6.977h-.021a9.565,9.565,0,0,0-9.575,9.563,9.1,9.1,0,0,0,.112,1.368Z" fill="#fff"/>
      <g id="Grupo_25" data-name="Grupo 25">
        <line id="Línea_21" data-name="Línea 21" x1="6.878" y2="6.88" transform="translate(1139.566 183.62)" fill="none" stroke="#fff" stroke-width="4"/>
        <line id="Línea_22" data-name="Línea 22" x1="6.878" y2="6.88" transform="translate(1152.072 183.62)" fill="none" stroke="#fff" stroke-width="4"/>
        <line id="Línea_23" data-name="Línea 23" x1="6.878" y2="6.88" transform="translate(1164.578 183.62)" fill="none" stroke="#fff" stroke-width="4"/>
        <line id="Línea_24" data-name="Línea 24" x1="6.878" y2="6.878" transform="translate(1141.233 196.962)" fill="none" stroke="#fff" stroke-width="4"/>
        <line id="Línea_25" data-name="Línea 25" x1="6.879" y2="6.878" transform="translate(1153.739 196.962)" fill="none" stroke="#fff" stroke-width="4"/>
      </g>
      <g id="Grupo_27" data-name="Grupo 27">
        <g id="Grupo_26" data-name="Grupo 26">
          <path id="Trazado_30" data-name="Trazado 30" d="M1225.1,205.6l12.193-12.2L1225.1,181.2" fill="none" stroke="#fff" stroke-width="4"/>
        </g>
        <line id="Línea_26" data-name="Línea 26" x1="48.149" transform="translate(1187.658 193.398)" fill="none" stroke="#fff" stroke-width="4"/>
      </g>
      <g id="Grupo_29" data-name="Grupo 29">
        <g id="Grupo_28" data-name="Grupo 28">
          <path id="Trazado_31" data-name="Trazado 31" d="M1159.206,223.094l-12.194,12.2,12.194,12.2" fill="none" stroke="#fff" stroke-width="4"/>
        </g>
        <line id="Línea_27" data-name="Línea 27" x2="48.15" transform="translate(1148.499 235.294)" fill="none" stroke="#fff" stroke-width="4"/>
      </g>
    </g>
  </g>
</svg>
