<svg xmlns="http://www.w3.org/2000/svg" width="478.83" height="486.298" viewBox="0 0 478.83 486.298">
  <g id="Grupo_104" data-name="Grupo 104" transform="translate(-750.498 -2630.486)">
    <text id="Las_marcas_de_fábrica_" data-name="Las marcas de fábrica



" transform="translate(777.277 2745.835)" fill="#444242" font-size="16" font-family="OpenSans, Open Sans"><tspan x="3.017" y="17">Las marcas de fábrica</tspan><tspan x="83.739" y="39"></tspan></text>
    <path id="Trazado_39" data-name="Trazado 39" d="M752,2739.958v50.558l25.279-25.279Z" fill="#ff3232"/>
    <text id="Las_marcas_de_servicio_" data-name="Las marcas de servicio



" transform="translate(1043.751 2745.835)" fill="#444242" font-size="16" font-family="OpenSans, Open Sans"><tspan x="0.36" y="17">Las marcas de servicio</tspan><tspan x="83.739" y="39"></tspan></text>
    <path id="Trazado_40" data-name="Trazado 40" d="M1018.472,2739.958v50.558l25.279-25.279Z" fill="#ff3232"/>
    <text id="Las_indicaciones_geográficas_" data-name="Las indicaciones geográficas 



" transform="translate(777.277 3003.822)" fill="#444242" font-size="16" font-family="OpenSans, Open Sans"><tspan x="23.247" y="17">Las indicaciones </tspan><tspan x="41.29" y="39">geográficas </tspan></text>
    <path id="Trazado_43" data-name="Trazado 43" d="M752,2997.945V3048.5l25.279-25.279Z" fill="#ff3232"/>
    <text id="la_protección_contra_la_competencia_desleal_" data-name="la protección contra la competencia desleal



" transform="translate(1043.751 3003.822)" fill="#444242" font-size="16" font-family="OpenSans, Open Sans"><tspan x="1.095" y="17">la protección contra la </tspan><tspan x="7.493" y="39">competencia desleal</tspan><tspan x="83.739" y="61"></tspan></text>
    <path id="Trazado_46" data-name="Trazado 46" d="M941.094,2631.986H772.259A20.284,20.284,0,0,0,752,2652.246v83.379h3.117v-83.379a17.163,17.163,0,0,1,17.144-17.143H941.094a17.163,17.163,0,0,1,17.144,17.143v184.79a17.164,17.164,0,0,1-17.144,17.144H772.259a17.164,17.164,0,0,1-17.144-17.144v-38.551H752v38.551a20.284,20.284,0,0,0,20.261,20.261H941.094a20.284,20.284,0,0,0,20.261-20.261v-184.79A20.284,20.284,0,0,0,941.094,2631.986Z" fill="#aeadb3" stroke="#aeadb3" stroke-miterlimit="10" stroke-width="3"/>
    <path id="Trazado_47" data-name="Trazado 47" d="M1207.568,2631.986H1038.732a20.283,20.283,0,0,0-20.26,20.26v83.379h3.117v-83.379a17.162,17.162,0,0,1,17.143-17.143h168.836a17.162,17.162,0,0,1,17.143,17.143v184.79a17.163,17.163,0,0,1-17.143,17.144H1038.732a17.163,17.163,0,0,1-17.143-17.144v-38.551h-3.117v38.551a20.283,20.283,0,0,0,20.26,20.261h168.836a20.283,20.283,0,0,0,20.26-20.261v-184.79A20.283,20.283,0,0,0,1207.568,2631.986Z" fill="#aeadb3" stroke="#aeadb3" stroke-miterlimit="10" stroke-width="3"/>
    <path id="Trazado_50" data-name="Trazado 50" d="M941.094,2889.973H772.259A20.284,20.284,0,0,0,752,2910.233v83.379h3.117v-83.379a17.163,17.163,0,0,1,17.144-17.143H941.094a17.163,17.163,0,0,1,17.144,17.143v184.79a17.164,17.164,0,0,1-17.144,17.144H772.259a17.164,17.164,0,0,1-17.144-17.144v-38.551H752v38.551a20.284,20.284,0,0,0,20.261,20.261H941.094a20.284,20.284,0,0,0,20.261-20.261v-184.79A20.284,20.284,0,0,0,941.094,2889.973Z" fill="#aeadb3" stroke="#aeadb3" stroke-miterlimit="10" stroke-width="3"/>
    <path id="Trazado_51" data-name="Trazado 51" d="M1207.568,2889.973H1038.732a20.283,20.283,0,0,0-20.26,20.26v83.379h3.117v-83.379a17.162,17.162,0,0,1,17.143-17.143h168.836a17.162,17.162,0,0,1,17.143,17.143v184.79a17.163,17.163,0,0,1-17.143,17.144H1038.732a17.163,17.163,0,0,1-17.143-17.144v-38.551h-3.117v38.551a20.283,20.283,0,0,0,20.26,20.261h168.836a20.283,20.283,0,0,0,20.26-20.261v-184.79A20.283,20.283,0,0,0,1207.568,2889.973Z" fill="#aeadb3" stroke="#aeadb3" stroke-miterlimit="10" stroke-width="3"/>
    <path id="Trazado_52" data-name="Trazado 52" d="M1018.472,2997.945V3048.5l25.279-25.279Z" fill="#ff3232"/>
    <g id="Grupo_39" data-name="Grupo 39">
      <path id="Trazado_53" data-name="Trazado 53" d="M853.491,2678.736l9.692,9.693,7.183-7.184,18.316,18.316" fill="none" stroke="#4d4d4d" stroke-width="2"/>
      <path id="Trazado_54" data-name="Trazado 54" d="M841.2,2688.517a9.85,9.85,0,1,1-2.023-15.49" fill="none" stroke="#4d4d4d" stroke-width="2"/>
      <g id="Grupo_37" data-name="Grupo 37">
        <line id="Línea_28" data-name="Línea 28" y2="19.753" transform="translate(833.553 2677.671)" fill="none" stroke="#4d4d4d" stroke-width="2"/>
        <line id="Línea_29" data-name="Línea 29" x1="4.272" y1="4.271" transform="translate(829.281 2681.408)" fill="none" stroke="#4d4d4d" stroke-width="2"/>
      </g>
      <path id="Trazado_55" data-name="Trazado 55" d="M853.364,2683.6a7.074,7.074,0,0,1-7.074,7.073h0a7.073,7.073,0,0,1-7.072-7.073v-27.578a7.071,7.071,0,0,1,7.072-7.071h0a7.073,7.073,0,0,1,7.074,7.071Z" fill="none" stroke="#4d4d4d" stroke-width="2"/>
      <g id="Grupo_38" data-name="Grupo 38">
        <line id="Línea_30" data-name="Línea 30" y2="45.702" transform="translate(846.29 2651.722)" fill="none" stroke="#4d4d4d" stroke-width="2"/>
        <line id="Línea_31" data-name="Línea 31" y1="4.269" x2="4.272" transform="translate(846.29 2681.408)" fill="none" stroke="#4d4d4d" stroke-width="2"/>
        <line id="Línea_32" data-name="Línea 32" x1="4.272" y1="4.271" transform="translate(842.018 2681.408)" fill="none" stroke="#4d4d4d" stroke-width="2"/>
        <line id="Línea_33" data-name="Línea 33" y1="4.271" x2="4.272" transform="translate(846.29 2673.254)" fill="none" stroke="#4d4d4d" stroke-width="2"/>
        <line id="Línea_34" data-name="Línea 34" x1="4.272" y1="4.272" transform="translate(842.018 2673.254)" fill="none" stroke="#4d4d4d" stroke-width="2"/>
        <line id="Línea_35" data-name="Línea 35" y1="4.27" x2="4.272" transform="translate(846.29 2665.102)" fill="none" stroke="#4d4d4d" stroke-width="2"/>
        <line id="Línea_36" data-name="Línea 36" x1="4.272" y1="4.271" transform="translate(842.018 2665.102)" fill="none" stroke="#4d4d4d" stroke-width="2"/>
        <line id="Línea_37" data-name="Línea 37" y1="4.27" x2="4.272" transform="translate(846.29 2656.949)" fill="none" stroke="#4d4d4d" stroke-width="2"/>
        <line id="Línea_38" data-name="Línea 38" x1="4.272" y1="4.271" transform="translate(842.018 2656.949)" fill="none" stroke="#4d4d4d" stroke-width="2"/>
      </g>
      <rect id="Rectángulo_20" data-name="Rectángulo 20" width="22.078" height="36.684" transform="translate(825.404 2698.669)" fill="none" stroke="#4d4d4d" stroke-width="2"/>
      <rect id="Rectángulo_21" data-name="Rectángulo 21" width="45.63" height="36.684" transform="translate(847.272 2698.669)" fill="none" stroke="#4d4d4d" stroke-width="2"/>
      <line id="Línea_39" data-name="Línea 39" x2="7.99" transform="translate(853.824 2727.406)" fill="none" stroke="#4d4d4d" stroke-width="2"/>
      <path id="Trazado_56" data-name="Trazado 56" d="M869.691,2697.242H824.062l-10.935,16.5h45.63Z" fill="#fcfcfc" stroke="#4d4d4d" stroke-width="2"/>
      <path id="Trazado_57" data-name="Trazado 57" d="M847.716,2697.327h46.6l11.167,16.849h-46.6Z" fill="#fcfcfc" stroke="#4d4d4d" stroke-width="2"/>
    </g>
    <g id="Grupo_43" data-name="Grupo 43">
      <path id="Trazado_62" data-name="Trazado 62" d="M1160.8,2697.9c-2.112,1.213-5.058,3.293-7.427,4.966l-1.438,1.011a6.5,6.5,0,0,0-5.367-.062,57.674,57.674,0,0,0-7.425,3.953,22.436,22.436,0,0,0-11.47-2.519h-6.358c-10.725,0-19.127,7.934-19.127,18.067h0v9.563h2.123v-4.251h19.13v4.251h2.126v-5.313c-.011-3.133,1.211-3.384,5.448-3.778,4.326-.4,10.867-1.007,18.046-7.3-.036.032,19.676-15.718,19.676-15.718l.025-1.64C1167.183,2697.792,1163.628,2696.278,1160.8,2697.9Zm-13.1,16.955c-6.7,5.871-12.582,6.418-16.881,6.816-3.673.341-6.877.647-7.318,4.833h-19.187l0-3.188,0,0c0-8.936,7.47-15.938,17-15.938h6.378a20.168,20.168,0,0,1,10.953,2.536l1.1-.02a56.212,56.212,0,0,1,7.673-4.13,4.459,4.459,0,0,1,3.868.166l-10.969,7.584c-2.318,1.3-6.626,1.3-9.479,1.3a15.154,15.154,0,0,0-5.753,1.159l.883,1.933h0a13.184,13.184,0,0,1,4.873-.968c3.075,0,7.718,0,10.6-1.625.082-.052,12.306-8.5,12.306-8.5l.149-1.626c-.016-.018-.039-.035-.056-.052l.756-.529c2.334-1.647,5.234-3.7,7.26-4.862,1.4-.8,3.164-.328,4.393.289Zm-28.508,18.024h2.126v-2.123h-2.126Z" fill="#4d4d4d"/>
      <path id="Trazado_63" data-name="Trazado 63" d="M1153.339,2681.4l-.589-1.812-10.764-1.564-4.83-10.416h-1.927l-4.827,10.416-10.766,1.564-.589,1.812,7.8,7.606L1125,2699.745l1.543,1.121,9.647-5.068,9.645,5.068,1.542-1.121-1.845-10.737Zm-16.65,12.254h-.99l-8.235,4.327,1.574-9.164-.3-.943-6.661-6.492,9.2-1.336.812-.6,4.1-8.858,4.106,8.858.813.6,9.2,1.336-6.661,6.492-.3.943,1.575,9.164Zm15.187-1.188,4.25,1.062.518-2.062-4.252-1.064Zm-2.619,2.908,3.187,3.187,1.5-1.5-3.188-3.191Zm-29.263-4.972-4.25,1.064.516,2.062,4.25-1.062Zm-1.555,6.659,1.5,1.5,3.189-3.187-1.5-1.5Zm33.953-22.662,4.252-1.062-.518-2.062-4.25,1.063Zm1.556-6.655-1.5-1.5-3.187,3.188,1.5,1.5Zm-33.438,4.594-4.25-1.063-.516,2.062,4.25,1.062Zm2.62-2.909-3.189-3.188-1.5,1.5,3.188,3.187Z" fill="#4d4d4d"/>
    </g>
    <g id="Grupo_44" data-name="Grupo 44">
      <path id="Trazado_64" data-name="Trazado 64" d="M1146.246,2991.508h-1.952v-25.231l.157-.529a24.2,24.2,0,0,0,3.717-13.071,21.141,21.141,0,0,0-21.472-21.467c-12.378,0-22.447,9.633-22.447,21.471v5.858c0,1.463-1.777,5.008-4.486,10.25-.261.5-.516.994-.755,1.461h4.265l.976.976v8.784c0,2.408.519,2.927,2.928,2.927h11.712l.847,1.46-3.9,6.832-1.694-.968,3.071-5.372h-10.031c-3.467,0-4.88-1.413-4.88-4.879V2972.2h-4.88l-.874-1.413c.424-.847.939-1.841,1.485-2.9,1.6-3.088,4.269-8.255,4.269-9.353v-5.858c0-12.915,10.944-23.423,24.4-23.423a23.09,23.09,0,0,1,23.424,23.428,26.194,26.194,0,0,1-3.874,13.875Z" fill="#4d4d4d"/>
      <path id="Trazado_65" data-name="Trazado 65" d="M1116.935,2953.445h1.954v-1.951h-1.954Zm17.353-7.188-1.38-1.38-1.38,1.38,1.38,1.38Zm-12.422,0-1.38-1.381-1.381,1.381,1.381,1.38Zm5.806-3.548h-1.952v1.95h1.952Zm6.832,10.733,1.952,0,0-1.951-1.954,0Zm7.808-3.9h-2.281c-.088-.4-.2-.8-.327-1.2l1.98-1.143.357-1.334-1.95-3.379-1.334-.358-1.978,1.14c-.283-.312-.577-.609-.878-.887l1.14-1.97-.358-1.333-3.38-1.952-1.333.358-1.138,1.969c-.4-.128-.806-.239-1.208-.329v-2.269l-.975-.976h-3.9l-.977.975v2.27c-.4.09-.8.2-1.207.329l-1.137-1.97-1.333-.357-3.38,1.95-.357,1.333,1.136,1.971c-.3.279-.6.575-.88.886l-1.974-1.139-1.333.357-1.952,3.38.358,1.333,1.966,1.135q-.186.593-.318,1.211h-2.277l-.977.975v3.9l.977.976,2.282,0c.089.408.2.811.321,1.205l-1.975,1.14-.358,1.332,1.951,3.379,1.334.359,1.971-1.137q.423.462.884.883l-1.139,1.971.357,1.333,3.38,1.952,1.333-.358,1.14-1.974c.4.126.8.232,1.207.321v2.281l.976.977h3.9l.976-.977V2965.8c.408-.089.811-.2,1.205-.321l1.142,1.975,1.332.357,3.381-1.95.357-1.333-1.138-1.971c.308-.282.6-.577.884-.885l1.971,1.137,1.333-.356,1.951-3.379-.358-1.335-1.973-1.139c.125-.4.232-.8.321-1.206h2.282l.977-.977v-3.9Zm-.977,3.9-2.116,0-.965.827a11.637,11.637,0,0,1-.644,2.421l.423,1.2,1.829,1.057-.975,1.689-1.827-1.055-1.247.232a11.727,11.727,0,0,1-1.775,1.775l-.232,1.248,1.054,1.826-1.689.975-1.057-1.83-1.2-.422a11.617,11.617,0,0,1-2.42.643l-.827.965v2.118h-1.95v-2.118l-.826-.965a11.651,11.651,0,0,1-2.42-.643l-1.2.422-1.057,1.828-1.689-.975,1.055-1.825-.233-1.248a11.8,11.8,0,0,1-1.773-1.774l-1.248-.232-1.827,1.053-.975-1.689,1.831-1.057.422-1.2a11.456,11.456,0,0,1-.644-2.418l-.964-.828h-2.119v-1.949h2.114l.964-.828a11.764,11.764,0,0,1,.639-2.424l-.421-1.2-1.821-1.051.975-1.69,1.831,1.058,1.248-.233a11.664,11.664,0,0,1,1.768-1.779l.232-1.248-1.053-1.824,1.69-.975,1.055,1.83,1.2.422a11.662,11.662,0,0,1,2.418-.659l.826-.965v-2.1h1.951v2.1l.827.965a11.642,11.642,0,0,1,2.42.659l1.2-.422,1.056-1.829,1.688.975-1.054,1.823.233,1.248a11.8,11.8,0,0,1,1.763,1.781l1.249.234,1.835-1.058.975,1.688-1.837,1.06-.422,1.2a11.594,11.594,0,0,1,.655,2.417l.965.827h2.112Zm-22.229,5.235,1.38,1.381,1.38-1.38-1.38-1.381Zm12.422,0,1.38,1.38,1.381-1.38-1.38-1.38Zm-4.832-12.067a5.856,5.856,0,1,0,5.857,5.855A5.862,5.862,0,0,0,1126.7,2946.613Zm0,9.76a3.9,3.9,0,1,1,3.9-3.905A3.906,3.906,0,0,1,1126.7,2956.373Zm-.976,5.856h1.953v-1.952h-1.952Zm13.827,10.976,1.454-1.452-1.379-1.381-1.455,1.453a4.814,4.814,0,0,0-1.711-.713v-2.052H1134.5v2.052a4.831,4.831,0,0,0-1.711.713l-1.453-1.455-1.38,1.38,1.453,1.455a4.839,4.839,0,0,0-.713,1.711h-2.051v1.952h2.051a4.82,4.82,0,0,0,.713,1.711l-1.454,1.453,1.38,1.381,1.454-1.454a4.827,4.827,0,0,0,1.711.713v2.05l1.953,0v-2.053a4.8,4.8,0,0,0,1.711-.713l1.453,1.455,1.381-1.38-1.454-1.456a4.824,4.824,0,0,0,.714-1.71h2.05l0-1.952h-2.052A4.875,4.875,0,0,0,1139.547,2973.205Zm-4.067,5.615a2.927,2.927,0,1,1,2.927-2.928A2.93,2.93,0,0,1,1135.48,2978.82Z" fill="#4d4d4d"/>
    </g>
    <g id="Grupo_49" data-name="Grupo 49">
      <g id="Grupo_47" data-name="Grupo 47">
        <g id="Grupo_45" data-name="Grupo 45">
          <path id="Trazado_66" data-name="Trazado 66" d="M858.9,2973.159l-15.539-25.984a17.985,17.985,0,1,1,31.085-.017Zm0-49.915a14.883,14.883,0,0,0-12.872,22.357l12.872,21.526,12.879-21.541a14.876,14.876,0,0,0-12.879-22.342Z" fill="#4d4d4d"/>
        </g>
        <g id="Grupo_46" data-name="Grupo 46">
          <path id="Trazado_67" data-name="Trazado 67" d="M858.9,2950.013a10.776,10.776,0,1,1,10.776-10.777A10.786,10.786,0,0,1,858.9,2950.013Zm0-18.457a7.681,7.681,0,1,0,7.679,7.68A7.687,7.687,0,0,0,858.9,2931.556Z" fill="#4d4d4d"/>
        </g>
      </g>
      <g id="Grupo_48" data-name="Grupo 48">
        <path id="Trazado_68" data-name="Trazado 68" d="M873,2963.274a14.813,14.813,0,1,1-28.2,0,18.7,18.7,0,0,1-2.582-3.851,18.687,18.687,0,1,0,33.362,0A18.657,18.657,0,0,1,873,2963.274Z" fill="#4d4d4d"/>
      </g>
    </g>
  </g>
</svg>
