<svg xmlns="http://www.w3.org/2000/svg" width="352.956" height="397.051" viewBox="0 0 352.956 397.051">
  <g id="Grupo_112" data-name="Grupo 112" transform="translate(-532.927 -9066.461)">
    <rect id="Rectángulo_52" data-name="Rectángulo 52" width="1.364" height="49.555" transform="translate(718.555 9222.214)" fill="#363636"/>
    <path id="Trazado_120" data-name="Trazado 120" d="M716.68,9271.769a2.557,2.557,0,1,1,2.557,2.558A2.557,2.557,0,0,1,716.68,9271.769Z" fill="#363636"/>
    <path id="Trazado_122" data-name="Trazado 122" d="M853.533,9459.779H532.927l32.35-86.075-32.35-86.075H853.533l32.35,86.075Z" fill="#fce8c8"/>
    <circle id="Elipse_19" data-name="Elipse 19" cx="69.32" cy="69.32" r="69.32" transform="translate(621.199 9164.494) rotate(-45)" fill="#ff3232"/>
    <circle id="Elipse_20" data-name="Elipse 20" cx="54.695" cy="54.695" r="54.695" transform="translate(664.542 9109.799)" fill="#fff"/>
    <g id="Grupo_86" data-name="Grupo 86">
      <g id="Grupo_85" data-name="Grupo 85">
        <path id="Trazado_126" data-name="Trazado 126" d="M717.381,9163.839q0,5.619-1.806,8.346a6.82,6.82,0,0,1-10.977-.089q-1.859-2.815-1.858-8.257,0-5.706,1.806-8.411a6.827,6.827,0,0,1,10.977.125Q717.382,9158.386,717.381,9163.839Zm-11.132,0a15.691,15.691,0,0,0,.907,6.3,3.169,3.169,0,0,0,5.809-.028,21.781,21.781,0,0,0,0-12.54,3.156,3.156,0,0,0-5.809-.037A15.807,15.807,0,0,0,706.249,9163.839Z" fill="#4c1000"/>
        <path id="Trazado_127" data-name="Trazado 127" d="M734.617,9174.617H720.005v-2.624l5.559-5.588a47.592,47.592,0,0,0,3.266-3.575,8.582,8.582,0,0,0,1.172-1.983,5.362,5.362,0,0,0,.368-1.99,3.035,3.035,0,0,0-.877-2.3,3.364,3.364,0,0,0-2.425-.84,6.464,6.464,0,0,0-2.4.457,11.176,11.176,0,0,0-2.676,1.651l-1.873-2.285a12.1,12.1,0,0,1,3.495-2.153,10.243,10.243,0,0,1,3.612-.634,7.112,7.112,0,0,1,4.821,1.57,5.3,5.3,0,0,1,1.814,4.225,7.408,7.408,0,0,1-.524,2.771,11.264,11.264,0,0,1-1.607,2.706,36.632,36.632,0,0,1-3.6,3.767l-3.745,3.627v.147h10.233Z" fill="#4c1000"/>
      </g>
    </g>
    <text id="Táctica_es_de_mediano_plazo_y_tiene_que_ver_con_el_control_con_las_políticas_que_están_en_los_planes_de_desarrollo_a_nivel_de_gobierno_o_estratégicos_si_son_empresas._" data-name="Táctica, es de mediano plazo y tiene que ver con el control, con las políticas que están en los planes de desarrollo, a nivel de gobierno o estratégicos si son empresas.



  






" transform="translate(594.938 9306.512)" fill="#444242" font-size="16" font-family="OpenSans-Bold, Open Sans" font-weight="700"><tspan x="0" y="17">Táctica</tspan><tspan y="17" font-family="OpenSans, Open Sans" font-weight="400">, es de mediano plazo y </tspan><tspan x="0" y="39" font-family="OpenSans, Open Sans" font-weight="400">tiene que ver con el control, con </tspan><tspan x="0" y="61" font-family="OpenSans, Open Sans" font-weight="400">las políticas que están en los </tspan><tspan x="0" y="83" font-family="OpenSans, Open Sans" font-weight="400">planes de desarrollo, a nivel de </tspan><tspan x="0" y="105" font-family="OpenSans, Open Sans" font-weight="400">gobierno o estratégicos si son </tspan><tspan x="0" y="127" font-family="OpenSans, Open Sans" font-weight="400">empresas.</tspan><tspan font-family="OpenSans, Open Sans" font-weight="400"><tspan x="0" y="149"></tspan></tspan></text>
  </g>
</svg>
