<svg xmlns="http://www.w3.org/2000/svg" width="1047.328" height="397.051" viewBox="0 0 1047.328 397.051">
  <g id="Grupo_111" data-name="Grupo 111" transform="translate(-198.372 -9066.461)">
    <rect id="Rectángulo_52" data-name="Rectángulo 52" width="1.364" height="49.555" transform="translate(718.555 9222.214)" fill="#363636"/>
    <path id="Trazado_120" data-name="Trazado 120" d="M716.68,9271.769a2.557,2.557,0,1,1,2.557,2.558A2.557,2.557,0,0,1,716.68,9271.769Z" fill="#363636"/>
    <rect id="Rectángulo_53" data-name="Rectángulo 53" width="1.364" height="49.555" transform="translate(1076.929 9222.214)" fill="#363636"/>
    <path id="Trazado_121" data-name="Trazado 121" d="M1075.054,9271.769a2.557,2.557,0,1,1,2.557,2.558A2.558,2.558,0,0,1,1075.054,9271.769Z" fill="#363636"/>
    <path id="Trazado_122" data-name="Trazado 122" d="M853.533,9459.779H532.927l32.35-86.075-32.35-86.075H853.533l32.35,86.075Z" fill="#fce8c8"/>
    <path id="Trazado_123" data-name="Trazado 123" d="M1213.351,9459.779H889.883l32.35-86.075-32.35-86.075h323.468l32.35,86.075Z" fill="#fce8c8"/>
    <path id="Trazado_124" data-name="Trazado 124" d="M493.6,9459.779H198.372l32.35-86.075-32.35-86.075H493.6l32.35,86.075Z" fill="#fce8c8"/>
    <rect id="Rectángulo_54" data-name="Rectángulo 54" width="1.364" height="49.555" transform="translate(361.212 9222.214)" fill="#363636"/>
    <path id="Trazado_125" data-name="Trazado 125" d="M359.337,9271.769a2.557,2.557,0,1,1,2.557,2.558A2.557,2.557,0,0,1,359.337,9271.769Z" fill="#363636"/>
    <circle id="Elipse_17" data-name="Elipse 17" cx="69.32" cy="69.32" r="69.32" transform="translate(263.856 9164.494) rotate(-45)" fill="#ff3232"/>
    <circle id="Elipse_18" data-name="Elipse 18" cx="54.695" cy="54.695" r="54.695" transform="translate(307.199 9109.799)" fill="#fff"/>
    <circle id="Elipse_19" data-name="Elipse 19" cx="69.32" cy="69.32" r="69.32" transform="translate(621.199 9164.494) rotate(-45)" fill="#ff3232"/>
    <circle id="Elipse_20" data-name="Elipse 20" cx="54.695" cy="54.695" r="54.695" transform="translate(664.542 9109.799)" fill="#fff"/>
    <circle id="Elipse_21" data-name="Elipse 21" cx="69.32" cy="69.32" r="69.32" transform="translate(979.573 9164.494) rotate(-45)" fill="#ff3232"/>
    <circle id="Elipse_22" data-name="Elipse 22" cx="54.695" cy="54.695" r="54.695" transform="translate(1022.916 9109.799)" fill="#fff"/>
    <g id="Grupo_86" data-name="Grupo 86">
      <g id="Grupo_85" data-name="Grupo 85">
        <path id="Trazado_126" data-name="Trazado 126" d="M717.381,9163.839q0,5.619-1.806,8.346a6.82,6.82,0,0,1-10.977-.089q-1.859-2.815-1.858-8.257,0-5.706,1.806-8.411a6.827,6.827,0,0,1,10.977.125Q717.382,9158.386,717.381,9163.839Zm-11.132,0a15.691,15.691,0,0,0,.907,6.3,3.169,3.169,0,0,0,5.809-.028,21.781,21.781,0,0,0,0-12.54,3.156,3.156,0,0,0-5.809-.037A15.807,15.807,0,0,0,706.249,9163.839Z" fill="#4c1000"/>
        <path id="Trazado_127" data-name="Trazado 127" d="M734.617,9174.617H720.005v-2.624l5.559-5.588a47.592,47.592,0,0,0,3.266-3.575,8.582,8.582,0,0,0,1.172-1.983,5.362,5.362,0,0,0,.368-1.99,3.035,3.035,0,0,0-.877-2.3,3.364,3.364,0,0,0-2.425-.84,6.464,6.464,0,0,0-2.4.457,11.176,11.176,0,0,0-2.676,1.651l-1.873-2.285a12.1,12.1,0,0,1,3.495-2.153,10.243,10.243,0,0,1,3.612-.634,7.112,7.112,0,0,1,4.821,1.57,5.3,5.3,0,0,1,1.814,4.225,7.408,7.408,0,0,1-.524,2.771,11.264,11.264,0,0,1-1.607,2.706,36.632,36.632,0,0,1-3.6,3.767l-3.745,3.627v.147h10.233Z" fill="#4c1000"/>
      </g>
    </g>
    <g id="Grupo_88" data-name="Grupo 88">
      <g id="Grupo_87" data-name="Grupo 87">
        <path id="Trazado_128" data-name="Trazado 128" d="M359.48,9161.964q0,5.618-1.806,8.345a6.819,6.819,0,0,1-10.977-.088q-1.857-2.815-1.858-8.257,0-5.706,1.806-8.411a6.825,6.825,0,0,1,10.977.125Q359.48,9156.509,359.48,9161.964Zm-11.132,0a15.712,15.712,0,0,0,.907,6.3,3.169,3.169,0,0,0,5.809-.029,21.777,21.777,0,0,0,0-12.539,3.156,3.156,0,0,0-5.809-.037A15.825,15.825,0,0,0,348.348,9161.964Z" fill="#4c1000"/>
        <path id="Trazado_129" data-name="Trazado 129" d="M372.278,9172.742h-3.465v-13.918q0-2.492.118-3.951-.339.353-.833.781t-3.31,2.713l-1.74-2.2,6.34-4.984h2.89Z" fill="#4c1000"/>
      </g>
    </g>
    <g id="Grupo_90" data-name="Grupo 90">
      <g id="Grupo_89" data-name="Grupo 89">
        <path id="Trazado_130" data-name="Trazado 130" d="M1074.638,9167.068q0,5.619-1.806,8.346a6.821,6.821,0,0,1-10.977-.089q-1.857-2.815-1.857-8.257,0-5.706,1.806-8.411a6.827,6.827,0,0,1,10.977.125Q1074.638,9161.614,1074.638,9167.068Zm-11.131,0a15.716,15.716,0,0,0,.906,6.3,3.17,3.17,0,0,0,5.81-.029,21.8,21.8,0,0,0,0-12.54,3.158,3.158,0,0,0-5.81-.037A15.834,15.834,0,0,0,1063.507,9167.068Z" fill="#4c1000"/>
        <path id="Trazado_131" data-name="Trazado 131" d="M1091.063,9161.245a4.994,4.994,0,0,1-1.194,3.413,6.01,6.01,0,0,1-3.362,1.835v.119a6.51,6.51,0,0,1,3.893,1.613,4.624,4.624,0,0,1,1.3,3.429,5.7,5.7,0,0,1-2.2,4.8,10.074,10.074,0,0,1-6.251,1.688,14.077,14.077,0,0,1-6.045-1.164v-3.082a13.829,13.829,0,0,0,2.9,1.048,12.6,12.6,0,0,0,2.949.367,6.221,6.221,0,0,0,3.745-.928,3.361,3.361,0,0,0,1.239-2.875,2.736,2.736,0,0,0-1.372-2.536,8.751,8.751,0,0,0-4.3-.811h-1.872v-2.816h1.9q5.16,0,5.16-3.567a2.636,2.636,0,0,0-.9-2.14,4.054,4.054,0,0,0-2.654-.751,8.022,8.022,0,0,0-2.359.347,11.16,11.16,0,0,0-2.684,1.349l-1.7-2.418a11.3,11.3,0,0,1,6.885-2.182,8.2,8.2,0,0,1,5.087,1.4A4.6,4.6,0,0,1,1091.063,9161.245Z" fill="#4c1000"/>
      </g>
    </g>
    <text id="Estratégica_es_de_largo_plazo_ya_que_no_se_tiene_control_sobre_las_variables_después_de_un_largo_tiempo._" data-name="Estratégica, es de largo plazo ya que no se tiene control sobre las variables después de un largo tiempo.



  






" transform="translate(254.54 9324.392)" fill="#444242" font-size="16" font-family="OpenSans-Bold, Open Sans" font-weight="700"><tspan x="0" y="17">Estratégica</tspan><tspan y="17" font-family="OpenSans, Open Sans" font-weight="400">, es de largo plazo </tspan><tspan x="0" y="39" font-family="OpenSans, Open Sans" font-weight="400">ya que no se tiene control </tspan><tspan x="0" y="61" font-family="OpenSans, Open Sans" font-weight="400">sobre las variables después de </tspan><tspan x="0" y="83" font-family="OpenSans, Open Sans" font-weight="400">un largo tiempo.</tspan><tspan font-family="OpenSans, Open Sans" font-weight="400"><tspan x="0" y="105"></tspan></tspan></text>
    <text id="Táctica_es_de_mediano_plazo_y_tiene_que_ver_con_el_control_con_las_políticas_que_están_en_los_planes_de_desarrollo_a_nivel_de_gobierno_o_estratégicos_si_son_empresas._" data-name="Táctica, es de mediano plazo y tiene que ver con el control, con las políticas que están en los planes de desarrollo, a nivel de gobierno o estratégicos si son empresas.



  






" transform="translate(594.938 9306.512)" fill="#444242" font-size="16" font-family="OpenSans-Bold, Open Sans" font-weight="700"><tspan x="0" y="17">Táctica</tspan><tspan y="17" font-family="OpenSans, Open Sans" font-weight="400">, es de mediano plazo y </tspan><tspan x="0" y="39" font-family="OpenSans, Open Sans" font-weight="400">tiene que ver con el control, con </tspan><tspan x="0" y="61" font-family="OpenSans, Open Sans" font-weight="400">las políticas que están en los </tspan><tspan x="0" y="83" font-family="OpenSans, Open Sans" font-weight="400">planes de desarrollo, a nivel de </tspan><tspan x="0" y="105" font-family="OpenSans, Open Sans" font-weight="400">gobierno o estratégicos si son </tspan><tspan x="0" y="127" font-family="OpenSans, Open Sans" font-weight="400">empresas.</tspan><tspan font-family="OpenSans, Open Sans" font-weight="400"><tspan x="0" y="149"></tspan></tspan></text>
    <text id="Operativa_hace_referencia_al_día_a_día_a_la_reacción_a_los_acontecimientos_inesperados_por_ejemplo_en_la_pandemia_por_el_COVID-19_se_han_tomado_decisiones_sobre_la_marcha._" data-name="Operativa, hace referencia al día a día, a la reacción a los acontecimientos inesperados, por ejemplo en la pandemia por el COVID-19 se han tomado decisiones sobre la marcha.


  






" transform="translate(943.929 9306.512)" fill="#444242" font-size="16" font-family="OpenSans-Bold, Open Sans" font-weight="700"><tspan x="0" y="17">Operativa</tspan><tspan y="17" font-family="OpenSans, Open Sans" font-weight="400">, hace referencia al día a </tspan><tspan x="0" y="39" font-family="OpenSans, Open Sans" font-weight="400">día, a la reacción a los </tspan><tspan x="0" y="61" font-family="OpenSans, Open Sans" font-weight="400">acontecimientos inesperados, por </tspan><tspan x="0" y="83" font-family="OpenSans, Open Sans" font-weight="400">ejemplo en la pandemia por el </tspan><tspan x="0" y="105" font-family="OpenSans, Open Sans" font-weight="400">COVID-19 se han tomado </tspan><tspan x="0" y="127" font-family="OpenSans, Open Sans" font-weight="400">decisiones sobre la marcha.</tspan></text>
  </g>
</svg>
