<svg xmlns="http://www.w3.org/2000/svg" width="355.818" height="393.318" viewBox="0 0 355.818 393.318">
  <g id="Grupo_113" data-name="Grupo 113" transform="translate(-889.883 -9066.461)">
    <rect id="Rectángulo_53" data-name="Rectángulo 53" width="1.364" height="49.555" transform="translate(1076.929 9222.214)" fill="#363636"/>
    <path id="Trazado_121" data-name="Trazado 121" d="M1075.054,9271.769a2.557,2.557,0,1,1,2.557,2.558A2.558,2.558,0,0,1,1075.054,9271.769Z" fill="#363636"/>
    <path id="Trazado_123" data-name="Trazado 123" d="M1213.351,9459.779H889.883l32.35-86.075-32.35-86.075h323.468l32.35,86.075Z" fill="#fce8c8"/>
    <circle id="Elipse_21" data-name="Elipse 21" cx="69.32" cy="69.32" r="69.32" transform="translate(979.573 9164.494) rotate(-45)" fill="#ff3232"/>
    <circle id="Elipse_22" data-name="Elipse 22" cx="54.695" cy="54.695" r="54.695" transform="translate(1022.916 9109.799)" fill="#fff"/>
    <g id="Grupo_90" data-name="Grupo 90">
      <g id="Grupo_89" data-name="Grupo 89">
        <path id="Trazado_130" data-name="Trazado 130" d="M1074.638,9167.068q0,5.619-1.806,8.346a6.821,6.821,0,0,1-10.977-.089q-1.857-2.815-1.857-8.257,0-5.706,1.806-8.411a6.827,6.827,0,0,1,10.977.125Q1074.638,9161.614,1074.638,9167.068Zm-11.131,0a15.716,15.716,0,0,0,.906,6.3,3.17,3.17,0,0,0,5.81-.029,21.8,21.8,0,0,0,0-12.54,3.158,3.158,0,0,0-5.81-.037A15.834,15.834,0,0,0,1063.507,9167.068Z" fill="#4c1000"/>
        <path id="Trazado_131" data-name="Trazado 131" d="M1091.063,9161.245a4.994,4.994,0,0,1-1.194,3.413,6.01,6.01,0,0,1-3.362,1.835v.119a6.51,6.51,0,0,1,3.893,1.613,4.624,4.624,0,0,1,1.3,3.429,5.7,5.7,0,0,1-2.2,4.8,10.074,10.074,0,0,1-6.251,1.688,14.077,14.077,0,0,1-6.045-1.164v-3.082a13.829,13.829,0,0,0,2.9,1.048,12.6,12.6,0,0,0,2.949.367,6.221,6.221,0,0,0,3.745-.928,3.361,3.361,0,0,0,1.239-2.875,2.736,2.736,0,0,0-1.372-2.536,8.751,8.751,0,0,0-4.3-.811h-1.872v-2.816h1.9q5.16,0,5.16-3.567a2.636,2.636,0,0,0-.9-2.14,4.054,4.054,0,0,0-2.654-.751,8.022,8.022,0,0,0-2.359.347,11.16,11.16,0,0,0-2.684,1.349l-1.7-2.418a11.3,11.3,0,0,1,6.885-2.182,8.2,8.2,0,0,1,5.087,1.4A4.6,4.6,0,0,1,1091.063,9161.245Z" fill="#4c1000"/>
      </g>
    </g>
    <text id="Operativa_hace_referencia_al_día_a_día_a_la_reacción_a_los_acontecimientos_inesperados_por_ejemplo_en_la_pandemia_por_el_COVID-19_se_han_tomado_decisiones_sobre_la_marcha._" data-name="Operativa, hace referencia al día a día, a la reacción a los acontecimientos inesperados, por ejemplo en la pandemia por el COVID-19 se han tomado decisiones sobre la marcha.


  






" transform="translate(943.929 9306.512)" fill="#444242" font-size="16" font-family="OpenSans-Bold, Open Sans" font-weight="700"><tspan x="0" y="17">Operativa</tspan><tspan y="17" font-family="OpenSans, Open Sans" font-weight="400">, hace referencia al día a </tspan><tspan x="0" y="39" font-family="OpenSans, Open Sans" font-weight="400">día, a la reacción a los </tspan><tspan x="0" y="61" font-family="OpenSans, Open Sans" font-weight="400">acontecimientos inesperados, por </tspan><tspan x="0" y="83" font-family="OpenSans, Open Sans" font-weight="400">ejemplo en la pandemia por el </tspan><tspan x="0" y="105" font-family="OpenSans, Open Sans" font-weight="400">COVID-19 se han tomado </tspan><tspan x="0" y="127" font-family="OpenSans, Open Sans" font-weight="400">decisiones sobre la marcha.</tspan></text>
  </g>
</svg>
