<svg xmlns="http://www.w3.org/2000/svg" width="1011.776" height="486.298" viewBox="0 0 1011.776 486.298">
  <g id="Grupo_104" data-name="Grupo 104" transform="translate(-217.552 -2630.486)">
    <text id="Las_patentes_de_invención_" data-name="Las patentes de 
invención



" transform="translate(244.331 2745.835)" fill="#444242" font-size="16" font-family="OpenSans, Open Sans"><tspan x="25.071" y="17">Las patentes de </tspan><tspan x="47.825" y="39">invención</tspan></text>
    <g id="Grupo_32" data-name="Grupo 32">
      <g id="Grupo_31" data-name="Grupo 31">
        <path id="Trazado_32" data-name="Trazado 32" d="M344.81,2690.933l.413-2.049v-.093c0-10.607-6.936-17.537-17.474-18.089a18.693,18.693,0,0,0-14.092,5.057c-3.5,3.5-5.189,8.314-4.889,13.917.2,3.661,2.284,6.989,3.962,9.661.269.428.528.842.768,1.238v7.783l-6.829,6.716,2.341,2.381,7.828-7.7v-10.095l-.229-.392c-.317-.539-.675-1.11-1.05-1.708-1.549-2.469-3.306-5.267-3.456-8.065-.248-4.63,1.106-8.564,3.916-11.379a14.833,14.833,0,0,1,11.349-4.079c8.707.453,13.973,5.945,14.1,14.7l-.282,2.785,3.663,7.741-3.853,1.6-.746,7.372-11.432-.891-.252,3.33,6.637.515v8.416h3.339v-8.156l4.724.366.9-8.63,5.3-2.179Z" fill="#4d4d4d"/>
        <path id="Trazado_33" data-name="Trazado 33" d="M328.659,2691.781a2.839,2.839,0,0,0,2.513-2.883l.056-.347a1.6,1.6,0,0,1,1.334-1.41l2.758-.459a3.473,3.473,0,0,0,2.575-2.043,3.077,3.077,0,0,0-.257-2.977,11.774,11.774,0,0,0-9.7-5.2,13.061,13.061,0,0,0-10.728,4.338,10,10,0,0,0-1.994,4.016h-.008l-.005.045a11.666,11.666,0,0,0-.036,5.031,2.848,2.848,0,0,0,1.342,2.76v0h.008a2.442,2.442,0,0,0,1.092.244c.1,0,.208,0,.32-.016l.082-.009a4.777,4.777,0,0,1,2.387,1.4,5.156,5.156,0,0,1,.769,4l1.646.28c.022-.129.682-3.194-1.132-5.348a4.445,4.445,0,0,0-.726-.634l3.849-.394a5.784,5.784,0,0,0-.7,3.177,16.9,16.9,0,0,1-.256,3.406l1.638.323a18.561,18.561,0,0,0,.288-3.728c0-2.2.031-3.007,2.231-3.506Zm-10.157-9.925c.025-.031.056-.057.081-.087a3.54,3.54,0,0,0,.74.949l1.136-1.223a2,2,0,0,1-.528-1.01,10.93,10.93,0,0,1,3.7-1.868,9.56,9.56,0,0,0-.462,2.655l1.67.029a6.557,6.557,0,0,1,.839-3.1,13.106,13.106,0,0,1,1.506-.1c.224,0,.447.005.672.016.205.011.4.04.6.058l-.507,1.078,1.512.711.716-1.524a10.572,10.572,0,0,1,2.027.679,5.355,5.355,0,0,0-.525,5.072l1.465-.8a3.791,3.791,0,0,1,.529-3.455,9.869,9.869,0,0,1,2.587,2.652,1.431,1.431,0,0,1,.107,1.39,1.784,1.784,0,0,1-1.318,1.051l-2.757.459a3.354,3.354,0,0,0-1.968,1.137,5.384,5.384,0,0,0-2.582-2.452c.23-.647.625-1.678.987-2.583l-1.551-.619c-.5,1.255-.805,2.06-.992,2.594a14.987,14.987,0,0,0-4.331-.608v1.67c3.119,0,7.157,1.657,7.726,3.706v0l-.055.347c-.108,1.337-.8,1.406-1.026,1.429l-7.511.771a3.458,3.458,0,0,1,1.157-1.618,3.4,3.4,0,0,1,2.661-.5l.283-1.647a5.052,5.052,0,0,0-3.928.8,5.293,5.293,0,0,0-1.954,3.149l-1.438.148-.152.006c-.231,0-.771,0-.771-1.338l-.017-.188a11.163,11.163,0,0,1-.189-3.185,5.452,5.452,0,0,1,2.106,1.077l.995-1.341a5.824,5.824,0,0,0-2.754-1.511A8.242,8.242,0,0,1,318.5,2681.856Z" fill="#4d4d4d"/>
      </g>
    </g>
    <g id="Grupo_34" data-name="Grupo 34">
      <g id="Grupo_33" data-name="Grupo 33">
        <path id="Trazado_34" data-name="Trazado 34" d="M615.626,2643.851l.041-1.813-1.813.039a34.047,34.047,0,0,0-23.425,10.008l-.313.313-8.5-3.835-.268.268-7.743,7.743-2.894,2.894,1.227,1.227,3.278-3.278,6.583,3.445,6.3,6.3.6.6-4.847,4.846,1.226,1.227,4.847-4.846.628.627,6.3,6.3,3.446,6.584-3.278,3.278,1.227,1.227,2.894-2.894,8.012-8.011-3.841-8.5.316-.316A34.041,34.041,0,0,0,615.626,2643.851Zm-33.634,6.786,6.813,3.073-5.818,5.818-6.489-3.4Zm17.725,9.8-2.453-2.454-6.719,6.72-3.914-3.914,6.251-6.252a30.585,30.585,0,0,1,19.177-8.9,30.571,30.571,0,0,1-8.9,19.177l-6.252,6.253L593,2667.159Zm7.349,15.273-5.494,5.493-3.4-6.488,5.815-5.816Z" fill="#4d4d4d"/>
        <path id="Trazado_35" data-name="Trazado 35" d="M589.91,2674.965a45.866,45.866,0,0,1-13.978,6.774,51.88,51.88,0,0,1,6.788-13.992l1-1.419-2.838-2-1,1.42a54.332,54.332,0,0,0-8.109,18.028l-.538,2.526,2.541-.457a48.406,48.406,0,0,0,18.19-8.088l1.4-1.026-2.054-2.8Z" fill="#4d4d4d"/>
        <path id="Trazado_36" data-name="Trazado 36" d="M607.556,2654.763a4.616,4.616,0,1,0-4.615,4.615A4.621,4.621,0,0,0,607.556,2654.763Zm-7.5,0a2.88,2.88,0,1,1,2.88,2.88A2.883,2.883,0,0,1,600.061,2654.763Z" fill="#4d4d4d"/>
      </g>
    </g>
    <path id="Trazado_37" data-name="Trazado 37" d="M219.052,2739.958v50.558l25.279-25.279Z" fill="#ff3232"/>
    <text id="Los_diseños_industriales_creaciones_estéticas_relacionadas_con_el_aspecto_de_los_productos_industriales_" data-name="Los diseños industriales (creaciones estéticas relacionadas con el aspecto de los productos industriales), 



" transform="translate(509.301 2694.073)" fill="#444242" font-size="16" font-family="OpenSans, Open Sans"><tspan x="44.079" y="17">Los diseños </tspan><tspan x="0.118" y="39">industriales (creaciones </tspan><tspan x="5.872" y="61">estéticas relacionadas </tspan><tspan x="10.188" y="83">con el aspecto de los </tspan><tspan x="49.813" y="105">productos </tspan><tspan x="39.966" y="127">industriales), </tspan><tspan x="87.747" y="149"></tspan></text>
    <path id="Trazado_38" data-name="Trazado 38" d="M485.525,2739.958v50.558l25.279-25.279Z" fill="#ff3232"/>
    <text id="Las_marcas_de_fábrica_" data-name="Las marcas de fábrica



" transform="translate(777.277 2745.835)" fill="#444242" font-size="16" font-family="OpenSans, Open Sans"><tspan x="3.017" y="17">Las marcas de fábrica</tspan><tspan x="83.739" y="39"></tspan></text>
    <path id="Trazado_39" data-name="Trazado 39" d="M752,2739.958v50.558l25.279-25.279Z" fill="#ff3232"/>
    <text id="Las_marcas_de_servicio_" data-name="Las marcas de servicio



" transform="translate(1043.751 2745.835)" fill="#444242" font-size="16" font-family="OpenSans, Open Sans"><tspan x="0.36" y="17">Las marcas de servicio</tspan><tspan x="83.739" y="39"></tspan></text>
    <path id="Trazado_40" data-name="Trazado 40" d="M1018.472,2739.958v50.558l25.279-25.279Z" fill="#ff3232"/>
    <text id="Los_esquemas_de_trazado_de_circuitos_integrados_" data-name="Los esquemas de trazado de circuitos integrados



" transform="translate(244.331 3003.822)" fill="#444242" font-size="16" font-family="OpenSans, Open Sans"><tspan x="19.079" y="17">Los esquemas de </tspan><tspan x="10.735" y="39">trazado de circuitos </tspan><tspan x="44.005" y="61">integrados</tspan></text>
    <path id="Trazado_41" data-name="Trazado 41" d="M219.052,2997.945V3048.5l25.279-25.279Z" fill="#ff3232"/>
    <text id="Los_nombres_y_las_denominaciones_comerciales_" data-name="Los nombres y las denominaciones comerciales



" transform="translate(510.804 3003.822)" fill="#444242" font-size="16" font-family="MyriadPro-Regular, Myriad Pro"><tspan x="17.264" y="17">L</tspan><tspan y="17" font-family="OpenSans, Open Sans">os nombres y las </tspan><tspan x="21.903" y="39" font-family="OpenSans, Open Sans">denominaciones </tspan><tspan x="39.454" y="61" font-family="OpenSans, Open Sans">comerciales</tspan></text>
    <path id="Trazado_42" data-name="Trazado 42" d="M485.525,2997.945V3048.5l25.279-25.279Z" fill="#ff3232"/>
    <text id="Las_indicaciones_geográficas_" data-name="Las indicaciones geográficas 



" transform="translate(777.277 3003.822)" fill="#444242" font-size="16" font-family="OpenSans, Open Sans"><tspan x="23.247" y="17">Las indicaciones </tspan><tspan x="41.29" y="39">geográficas </tspan></text>
    <path id="Trazado_43" data-name="Trazado 43" d="M752,2997.945V3048.5l25.279-25.279Z" fill="#ff3232"/>
    <text id="la_protección_contra_la_competencia_desleal_" data-name="la protección contra la competencia desleal



" transform="translate(1043.751 3003.822)" fill="#444242" font-size="16" font-family="OpenSans, Open Sans"><tspan x="1.095" y="17">la protección contra la </tspan><tspan x="7.493" y="39">competencia desleal</tspan><tspan x="83.739" y="61"></tspan></text>
    <g id="Grupo_36" data-name="Grupo 36" opacity="0.8">
      <g id="Grupo_35" data-name="Grupo 35">
        <path id="Trazado_44" data-name="Trazado 44" d="M408.148,2631.986H239.312a20.283,20.283,0,0,0-20.26,20.26v83.379h3.117v-83.379a17.162,17.162,0,0,1,17.143-17.143H408.148a17.162,17.162,0,0,1,17.143,17.143v184.79a17.163,17.163,0,0,1-17.143,17.144H239.312a17.163,17.163,0,0,1-17.143-17.144v-38.551h-3.117v38.551a20.283,20.283,0,0,0,20.26,20.261H408.148a20.283,20.283,0,0,0,20.26-20.261v-184.79A20.283,20.283,0,0,0,408.148,2631.986Z" fill="#aeadb3" stroke="#aeadb3" stroke-miterlimit="10" stroke-width="3"/>
        <path id="Trazado_45" data-name="Trazado 45" d="M674.621,2631.986H505.785a20.283,20.283,0,0,0-20.26,20.26v83.379h3.117v-83.379a17.162,17.162,0,0,1,17.143-17.143H674.621a17.163,17.163,0,0,1,17.144,17.143v184.79a17.164,17.164,0,0,1-17.144,17.144H505.785a17.163,17.163,0,0,1-17.143-17.144v-38.551h-3.117v38.551a20.283,20.283,0,0,0,20.26,20.261H674.621a20.284,20.284,0,0,0,20.261-20.261v-184.79A20.284,20.284,0,0,0,674.621,2631.986Z" fill="#aeadb3" stroke="#aeadb3" stroke-miterlimit="10" stroke-width="3"/>
        <path id="Trazado_46" data-name="Trazado 46" d="M941.094,2631.986H772.259A20.284,20.284,0,0,0,752,2652.246v83.379h3.117v-83.379a17.163,17.163,0,0,1,17.144-17.143H941.094a17.163,17.163,0,0,1,17.144,17.143v184.79a17.164,17.164,0,0,1-17.144,17.144H772.259a17.164,17.164,0,0,1-17.144-17.144v-38.551H752v38.551a20.284,20.284,0,0,0,20.261,20.261H941.094a20.284,20.284,0,0,0,20.261-20.261v-184.79A20.284,20.284,0,0,0,941.094,2631.986Z" fill="#aeadb3" stroke="#aeadb3" stroke-miterlimit="10" stroke-width="3"/>
        <path id="Trazado_47" data-name="Trazado 47" d="M1207.568,2631.986H1038.732a20.283,20.283,0,0,0-20.26,20.26v83.379h3.117v-83.379a17.162,17.162,0,0,1,17.143-17.143h168.836a17.162,17.162,0,0,1,17.143,17.143v184.79a17.163,17.163,0,0,1-17.143,17.144H1038.732a17.163,17.163,0,0,1-17.143-17.144v-38.551h-3.117v38.551a20.283,20.283,0,0,0,20.26,20.261h168.836a20.283,20.283,0,0,0,20.26-20.261v-184.79A20.283,20.283,0,0,0,1207.568,2631.986Z" fill="#aeadb3" stroke="#aeadb3" stroke-miterlimit="10" stroke-width="3"/>
        <path id="Trazado_48" data-name="Trazado 48" d="M408.148,2889.973H239.312a20.283,20.283,0,0,0-20.26,20.26v83.379h3.117v-83.379a17.162,17.162,0,0,1,17.143-17.143H408.148a17.162,17.162,0,0,1,17.143,17.143v184.79a17.163,17.163,0,0,1-17.143,17.144H239.312a17.163,17.163,0,0,1-17.143-17.144v-38.551h-3.117v38.551a20.283,20.283,0,0,0,20.26,20.261H408.148a20.283,20.283,0,0,0,20.26-20.261v-184.79A20.283,20.283,0,0,0,408.148,2889.973Z" fill="#aeadb3" stroke="#aeadb3" stroke-miterlimit="10" stroke-width="3"/>
        <path id="Trazado_49" data-name="Trazado 49" d="M674.621,2889.973H505.785a20.283,20.283,0,0,0-20.26,20.26v83.379h3.117v-83.379a17.162,17.162,0,0,1,17.143-17.143H674.621a17.163,17.163,0,0,1,17.144,17.143v184.79a17.164,17.164,0,0,1-17.144,17.144H505.785a17.163,17.163,0,0,1-17.143-17.144v-38.551h-3.117v38.551a20.283,20.283,0,0,0,20.26,20.261H674.621a20.284,20.284,0,0,0,20.261-20.261v-184.79A20.284,20.284,0,0,0,674.621,2889.973Z" fill="#aeadb3" stroke="#aeadb3" stroke-miterlimit="10" stroke-width="3"/>
        <path id="Trazado_50" data-name="Trazado 50" d="M941.094,2889.973H772.259A20.284,20.284,0,0,0,752,2910.233v83.379h3.117v-83.379a17.163,17.163,0,0,1,17.144-17.143H941.094a17.163,17.163,0,0,1,17.144,17.143v184.79a17.164,17.164,0,0,1-17.144,17.144H772.259a17.164,17.164,0,0,1-17.144-17.144v-38.551H752v38.551a20.284,20.284,0,0,0,20.261,20.261H941.094a20.284,20.284,0,0,0,20.261-20.261v-184.79A20.284,20.284,0,0,0,941.094,2889.973Z" fill="#aeadb3" stroke="#aeadb3" stroke-miterlimit="10" stroke-width="3"/>
        <path id="Trazado_51" data-name="Trazado 51" d="M1207.568,2889.973H1038.732a20.283,20.283,0,0,0-20.26,20.26v83.379h3.117v-83.379a17.162,17.162,0,0,1,17.143-17.143h168.836a17.162,17.162,0,0,1,17.143,17.143v184.79a17.163,17.163,0,0,1-17.143,17.144H1038.732a17.163,17.163,0,0,1-17.143-17.144v-38.551h-3.117v38.551a20.283,20.283,0,0,0,20.26,20.261h168.836a20.283,20.283,0,0,0,20.26-20.261v-184.79A20.283,20.283,0,0,0,1207.568,2889.973Z" fill="#aeadb3" stroke="#aeadb3" stroke-miterlimit="10" stroke-width="3"/>
      </g>
    </g>
    <path id="Trazado_52" data-name="Trazado 52" d="M1018.472,2997.945V3048.5l25.279-25.279Z" fill="#ff3232"/>
    <g id="Grupo_39" data-name="Grupo 39">
      <path id="Trazado_53" data-name="Trazado 53" d="M853.491,2678.736l9.692,9.693,7.183-7.184,18.316,18.316" fill="none" stroke="#4d4d4d" stroke-width="2"/>
      <path id="Trazado_54" data-name="Trazado 54" d="M841.2,2688.517a9.85,9.85,0,1,1-2.023-15.49" fill="none" stroke="#4d4d4d" stroke-width="2"/>
      <g id="Grupo_37" data-name="Grupo 37">
        <line id="Línea_28" data-name="Línea 28" y2="19.753" transform="translate(833.553 2677.671)" fill="none" stroke="#4d4d4d" stroke-width="2"/>
        <line id="Línea_29" data-name="Línea 29" x1="4.272" y1="4.271" transform="translate(829.281 2681.408)" fill="none" stroke="#4d4d4d" stroke-width="2"/>
      </g>
      <path id="Trazado_55" data-name="Trazado 55" d="M853.364,2683.6a7.074,7.074,0,0,1-7.074,7.073h0a7.073,7.073,0,0,1-7.072-7.073v-27.578a7.071,7.071,0,0,1,7.072-7.071h0a7.073,7.073,0,0,1,7.074,7.071Z" fill="none" stroke="#4d4d4d" stroke-width="2"/>
      <g id="Grupo_38" data-name="Grupo 38">
        <line id="Línea_30" data-name="Línea 30" y2="45.702" transform="translate(846.29 2651.722)" fill="none" stroke="#4d4d4d" stroke-width="2"/>
        <line id="Línea_31" data-name="Línea 31" y1="4.269" x2="4.272" transform="translate(846.29 2681.408)" fill="none" stroke="#4d4d4d" stroke-width="2"/>
        <line id="Línea_32" data-name="Línea 32" x1="4.272" y1="4.271" transform="translate(842.018 2681.408)" fill="none" stroke="#4d4d4d" stroke-width="2"/>
        <line id="Línea_33" data-name="Línea 33" y1="4.271" x2="4.272" transform="translate(846.29 2673.254)" fill="none" stroke="#4d4d4d" stroke-width="2"/>
        <line id="Línea_34" data-name="Línea 34" x1="4.272" y1="4.272" transform="translate(842.018 2673.254)" fill="none" stroke="#4d4d4d" stroke-width="2"/>
        <line id="Línea_35" data-name="Línea 35" y1="4.27" x2="4.272" transform="translate(846.29 2665.102)" fill="none" stroke="#4d4d4d" stroke-width="2"/>
        <line id="Línea_36" data-name="Línea 36" x1="4.272" y1="4.271" transform="translate(842.018 2665.102)" fill="none" stroke="#4d4d4d" stroke-width="2"/>
        <line id="Línea_37" data-name="Línea 37" y1="4.27" x2="4.272" transform="translate(846.29 2656.949)" fill="none" stroke="#4d4d4d" stroke-width="2"/>
        <line id="Línea_38" data-name="Línea 38" x1="4.272" y1="4.271" transform="translate(842.018 2656.949)" fill="none" stroke="#4d4d4d" stroke-width="2"/>
      </g>
      <rect id="Rectángulo_20" data-name="Rectángulo 20" width="22.078" height="36.684" transform="translate(825.404 2698.669)" fill="none" stroke="#4d4d4d" stroke-width="2"/>
      <rect id="Rectángulo_21" data-name="Rectángulo 21" width="45.63" height="36.684" transform="translate(847.272 2698.669)" fill="none" stroke="#4d4d4d" stroke-width="2"/>
      <line id="Línea_39" data-name="Línea 39" x2="7.99" transform="translate(853.824 2727.406)" fill="none" stroke="#4d4d4d" stroke-width="2"/>
      <path id="Trazado_56" data-name="Trazado 56" d="M869.691,2697.242H824.062l-10.935,16.5h45.63Z" fill="#fcfcfc" stroke="#4d4d4d" stroke-width="2"/>
      <path id="Trazado_57" data-name="Trazado 57" d="M847.716,2697.327h46.6l11.167,16.849h-46.6Z" fill="#fcfcfc" stroke="#4d4d4d" stroke-width="2"/>
    </g>
    <g id="Grupo_41" data-name="Grupo 41">
      <g id="Grupo_40" data-name="Grupo 40">
        <path id="Trazado_58" data-name="Trazado 58" d="M609.955,2986.633l-4.256-7.448.925-1.591h12.765c2.624,0,3.191-.567,3.191-3.191v-9.574l1.063-1.064,5.038,0c.179,0,.223-.074.242-.1a.624.624,0,0,0-.07-.566,34.774,34.774,0,0,0-2.385-3.349c-2.417-3.171-3.888-5.2-3.888-6.625v-8.509c0-12.905-10.8-23.405-24.066-23.405a23.42,23.42,0,0,0-23.8,23.409v4.252h-2.129v-4.256a25.529,25.529,0,0,1,25.933-25.531c14.443,0,26.194,11.454,26.194,25.531v8.509c0,.808,2.246,3.752,3.451,5.336a36.149,36.149,0,0,1,2.57,3.629,2.7,2.7,0,0,1,.014,2.673,2.373,2.373,0,0,1-2.062,1.129l-3.973,0v8.51c0,3.779-1.542,5.319-5.319,5.319H608.458l3.343,5.855Z" fill="#4d4d4d"/>
        <rect id="Rectángulo_22" data-name="Rectángulo 22" width="2.129" height="2.126" transform="translate(614.069 2948.871)" fill="#4d4d4d"/>
      </g>
      <path id="Trazado_59" data-name="Trazado 59" d="M592.483,2957.7l-.753-.312h-3.6a4.257,4.257,0,1,0-5.571,0h-3.6l-.753.312-2.127,2.128-.312.75v11.7l1.064,1.063h3.191v13.827h2.127V2962.7h-2.127v8.511H577.9v-10.2l1.505-1.505h11.884l1.505,1.505v10.2h-2.128V2962.7h-2.128v24.466h2.128V2973.34h3.192l1.062-1.063v-11.7l-.309-.75Zm-7.137-1.376a2.128,2.128,0,1,1,2.128-2.128A2.133,2.133,0,0,1,585.346,2956.319Zm-1.064,30.848h2.129v-11.7h-2.129Zm-11.7-37.232a4.237,4.237,0,0,0-2.784,7.448h-3.6l-.752.312-2.128,2.128-.312.75v11.7l1.064,1.063h3.192v13.827h2.125V2962.7h-2.125v8.511h-2.127v-10.2l1.5-1.505h8.07v-1.657a4.242,4.242,0,0,0-2.129-7.919Zm0,6.384a2.128,2.128,0,1,1,2.129-2.128A2.132,2.132,0,0,1,572.581,2956.319Zm-1.065,30.848h2.129v-11.7h-2.129Zm35.861-27.344-2.129-2.128-.753-.312h-3.6a4.252,4.252,0,1,0-4.912.471v1.657h8.071l1.505,1.505v10.2h-2.128V2962.7H601.3v24.466h2.128V2973.34h3.192l1.064-1.063v-11.7Zm-9.265-3.5a2.128,2.128,0,1,1,2.129-2.128A2.133,2.133,0,0,1,598.112,2956.319Zm-1.064,30.848h2.128v-11.7h-2.128Z" fill="#4d4d4d"/>
    </g>
    <g id="Grupo_42" data-name="Grupo 42">
      <path id="Trazado_60" data-name="Trazado 60" d="M333.372,2950.407v-29.489h-1.928v29.888l.283.681,21.134,21.136,1.362-1.365Zm-13.5,9.078h9.642v-1.929h-9.642Zm0,3.858h5.786v-1.93h-5.786Zm24.1-18.32h-1.928v1.926h1.928Zm3.857,0h-1.928v1.926h1.928Zm3.856,0h-1.928v1.926h1.928Z" fill="#4d4d4d" stroke="#4d4d4d" stroke-miterlimit="10" stroke-width="1"/>
      <path id="Trazado_61" data-name="Trazado 61" d="M332.406,2919.955a30.852,30.852,0,1,0,30.854,30.851A30.887,30.887,0,0,0,332.406,2919.955Zm20.455,51.3a28.923,28.923,0,1,1,8.472-20.452A28.743,28.743,0,0,1,352.861,2971.258Zm4.616-48.412-.683.282-2.892,2.894,1.362,1.363,2.612-2.611h5.384v-1.928Zm-2.213,51.381-1.362,1.365,2.892,2.892.683.283h5.783v-1.928h-5.384Z" fill="#4d4d4d" stroke="#4d4d4d" stroke-miterlimit="10" stroke-width="1"/>
    </g>
    <g id="Grupo_43" data-name="Grupo 43">
      <path id="Trazado_62" data-name="Trazado 62" d="M1160.8,2697.9c-2.112,1.213-5.058,3.293-7.427,4.966l-1.438,1.011a6.5,6.5,0,0,0-5.367-.062,57.674,57.674,0,0,0-7.425,3.953,22.436,22.436,0,0,0-11.47-2.519h-6.358c-10.725,0-19.127,7.934-19.127,18.067h0v9.563h2.123v-4.251h19.13v4.251h2.126v-5.313c-.011-3.133,1.211-3.384,5.448-3.778,4.326-.4,10.867-1.007,18.046-7.3-.036.032,19.676-15.718,19.676-15.718l.025-1.64C1167.183,2697.792,1163.628,2696.278,1160.8,2697.9Zm-13.1,16.955c-6.7,5.871-12.582,6.418-16.881,6.816-3.673.341-6.877.647-7.318,4.833h-19.187l0-3.188,0,0c0-8.936,7.47-15.938,17-15.938h6.378a20.168,20.168,0,0,1,10.953,2.536l1.1-.02a56.212,56.212,0,0,1,7.673-4.13,4.459,4.459,0,0,1,3.868.166l-10.969,7.584c-2.318,1.3-6.626,1.3-9.479,1.3a15.154,15.154,0,0,0-5.753,1.159l.883,1.933h0a13.184,13.184,0,0,1,4.873-.968c3.075,0,7.718,0,10.6-1.625.082-.052,12.306-8.5,12.306-8.5l.149-1.626c-.016-.018-.039-.035-.056-.052l.756-.529c2.334-1.647,5.234-3.7,7.26-4.862,1.4-.8,3.164-.328,4.393.289Zm-28.508,18.024h2.126v-2.123h-2.126Z" fill="#4d4d4d"/>
      <path id="Trazado_63" data-name="Trazado 63" d="M1153.339,2681.4l-.589-1.812-10.764-1.564-4.83-10.416h-1.927l-4.827,10.416-10.766,1.564-.589,1.812,7.8,7.606L1125,2699.745l1.543,1.121,9.647-5.068,9.645,5.068,1.542-1.121-1.845-10.737Zm-16.65,12.254h-.99l-8.235,4.327,1.574-9.164-.3-.943-6.661-6.492,9.2-1.336.812-.6,4.1-8.858,4.106,8.858.813.6,9.2,1.336-6.661,6.492-.3.943,1.575,9.164Zm15.187-1.188,4.25,1.062.518-2.062-4.252-1.064Zm-2.619,2.908,3.187,3.187,1.5-1.5-3.188-3.191Zm-29.263-4.972-4.25,1.064.516,2.062,4.25-1.062Zm-1.555,6.659,1.5,1.5,3.189-3.187-1.5-1.5Zm33.953-22.662,4.252-1.062-.518-2.062-4.25,1.063Zm1.556-6.655-1.5-1.5-3.187,3.188,1.5,1.5Zm-33.438,4.594-4.25-1.063-.516,2.062,4.25,1.062Zm2.62-2.909-3.189-3.188-1.5,1.5,3.188,3.187Z" fill="#4d4d4d"/>
    </g>
    <g id="Grupo_44" data-name="Grupo 44">
      <path id="Trazado_64" data-name="Trazado 64" d="M1146.246,2991.508h-1.952v-25.231l.157-.529a24.2,24.2,0,0,0,3.717-13.071,21.141,21.141,0,0,0-21.472-21.467c-12.378,0-22.447,9.633-22.447,21.471v5.858c0,1.463-1.777,5.008-4.486,10.25-.261.5-.516.994-.755,1.461h4.265l.976.976v8.784c0,2.408.519,2.927,2.928,2.927h11.712l.847,1.46-3.9,6.832-1.694-.968,3.071-5.372h-10.031c-3.467,0-4.88-1.413-4.88-4.879V2972.2h-4.88l-.874-1.413c.424-.847.939-1.841,1.485-2.9,1.6-3.088,4.269-8.255,4.269-9.353v-5.858c0-12.915,10.944-23.423,24.4-23.423a23.09,23.09,0,0,1,23.424,23.428,26.194,26.194,0,0,1-3.874,13.875Z" fill="#4d4d4d"/>
      <path id="Trazado_65" data-name="Trazado 65" d="M1116.935,2953.445h1.954v-1.951h-1.954Zm17.353-7.188-1.38-1.38-1.38,1.38,1.38,1.38Zm-12.422,0-1.38-1.381-1.381,1.381,1.381,1.38Zm5.806-3.548h-1.952v1.95h1.952Zm6.832,10.733,1.952,0,0-1.951-1.954,0Zm7.808-3.9h-2.281c-.088-.4-.2-.8-.327-1.2l1.98-1.143.357-1.334-1.95-3.379-1.334-.358-1.978,1.14c-.283-.312-.577-.609-.878-.887l1.14-1.97-.358-1.333-3.38-1.952-1.333.358-1.138,1.969c-.4-.128-.806-.239-1.208-.329v-2.269l-.975-.976h-3.9l-.977.975v2.27c-.4.09-.8.2-1.207.329l-1.137-1.97-1.333-.357-3.38,1.95-.357,1.333,1.136,1.971c-.3.279-.6.575-.88.886l-1.974-1.139-1.333.357-1.952,3.38.358,1.333,1.966,1.135q-.186.593-.318,1.211h-2.277l-.977.975v3.9l.977.976,2.282,0c.089.408.2.811.321,1.205l-1.975,1.14-.358,1.332,1.951,3.379,1.334.359,1.971-1.137q.423.462.884.883l-1.139,1.971.357,1.333,3.38,1.952,1.333-.358,1.14-1.974c.4.126.8.232,1.207.321v2.281l.976.977h3.9l.976-.977V2965.8c.408-.089.811-.2,1.205-.321l1.142,1.975,1.332.357,3.381-1.95.357-1.333-1.138-1.971c.308-.282.6-.577.884-.885l1.971,1.137,1.333-.356,1.951-3.379-.358-1.335-1.973-1.139c.125-.4.232-.8.321-1.206h2.282l.977-.977v-3.9Zm-.977,3.9-2.116,0-.965.827a11.637,11.637,0,0,1-.644,2.421l.423,1.2,1.829,1.057-.975,1.689-1.827-1.055-1.247.232a11.727,11.727,0,0,1-1.775,1.775l-.232,1.248,1.054,1.826-1.689.975-1.057-1.83-1.2-.422a11.617,11.617,0,0,1-2.42.643l-.827.965v2.118h-1.95v-2.118l-.826-.965a11.651,11.651,0,0,1-2.42-.643l-1.2.422-1.057,1.828-1.689-.975,1.055-1.825-.233-1.248a11.8,11.8,0,0,1-1.773-1.774l-1.248-.232-1.827,1.053-.975-1.689,1.831-1.057.422-1.2a11.456,11.456,0,0,1-.644-2.418l-.964-.828h-2.119v-1.949h2.114l.964-.828a11.764,11.764,0,0,1,.639-2.424l-.421-1.2-1.821-1.051.975-1.69,1.831,1.058,1.248-.233a11.664,11.664,0,0,1,1.768-1.779l.232-1.248-1.053-1.824,1.69-.975,1.055,1.83,1.2.422a11.662,11.662,0,0,1,2.418-.659l.826-.965v-2.1h1.951v2.1l.827.965a11.642,11.642,0,0,1,2.42.659l1.2-.422,1.056-1.829,1.688.975-1.054,1.823.233,1.248a11.8,11.8,0,0,1,1.763,1.781l1.249.234,1.835-1.058.975,1.688-1.837,1.06-.422,1.2a11.594,11.594,0,0,1,.655,2.417l.965.827h2.112Zm-22.229,5.235,1.38,1.381,1.38-1.38-1.38-1.381Zm12.422,0,1.38,1.38,1.381-1.38-1.38-1.38Zm-4.832-12.067a5.856,5.856,0,1,0,5.857,5.855A5.862,5.862,0,0,0,1126.7,2946.613Zm0,9.76a3.9,3.9,0,1,1,3.9-3.905A3.906,3.906,0,0,1,1126.7,2956.373Zm-.976,5.856h1.953v-1.952h-1.952Zm13.827,10.976,1.454-1.452-1.379-1.381-1.455,1.453a4.814,4.814,0,0,0-1.711-.713v-2.052H1134.5v2.052a4.831,4.831,0,0,0-1.711.713l-1.453-1.455-1.38,1.38,1.453,1.455a4.839,4.839,0,0,0-.713,1.711h-2.051v1.952h2.051a4.82,4.82,0,0,0,.713,1.711l-1.454,1.453,1.38,1.381,1.454-1.454a4.827,4.827,0,0,0,1.711.713v2.05l1.953,0v-2.053a4.8,4.8,0,0,0,1.711-.713l1.453,1.455,1.381-1.38-1.454-1.456a4.824,4.824,0,0,0,.714-1.71h2.05l0-1.952h-2.052A4.875,4.875,0,0,0,1139.547,2973.205Zm-4.067,5.615a2.927,2.927,0,1,1,2.927-2.928A2.93,2.93,0,0,1,1135.48,2978.82Z" fill="#4d4d4d"/>
    </g>
    <g id="Grupo_49" data-name="Grupo 49">
      <g id="Grupo_47" data-name="Grupo 47">
        <g id="Grupo_45" data-name="Grupo 45">
          <path id="Trazado_66" data-name="Trazado 66" d="M858.9,2973.159l-15.539-25.984a17.985,17.985,0,1,1,31.085-.017Zm0-49.915a14.883,14.883,0,0,0-12.872,22.357l12.872,21.526,12.879-21.541a14.876,14.876,0,0,0-12.879-22.342Z" fill="#4d4d4d"/>
        </g>
        <g id="Grupo_46" data-name="Grupo 46">
          <path id="Trazado_67" data-name="Trazado 67" d="M858.9,2950.013a10.776,10.776,0,1,1,10.776-10.777A10.786,10.786,0,0,1,858.9,2950.013Zm0-18.457a7.681,7.681,0,1,0,7.679,7.68A7.687,7.687,0,0,0,858.9,2931.556Z" fill="#4d4d4d"/>
        </g>
      </g>
      <g id="Grupo_48" data-name="Grupo 48">
        <path id="Trazado_68" data-name="Trazado 68" d="M873,2963.274a14.813,14.813,0,1,1-28.2,0,18.7,18.7,0,0,1-2.582-3.851,18.687,18.687,0,1,0,33.362,0A18.657,18.657,0,0,1,873,2963.274Z" fill="#4d4d4d"/>
      </g>
    </g>
  </g>
</svg>
