<svg xmlns="http://www.w3.org/2000/svg" width="580.676" height="408.606" viewBox="0 0 580.676 408.606">
  <g id="Grupo_114" data-name="Grupo 114" transform="translate(-176.828 -9699.445)">
    <text id="Positivo" transform="translate(232.497 9770.264)" fill="#444242" stroke="#444242" stroke-miterlimit="10" stroke-width="2" font-size="24" font-family="Montserrat-ExtraLight, Montserrat" font-weight="200"><tspan x="0" y="23">Positivo</tspan></text>
    <g id="Grupo_91" data-name="Grupo 91">
      <path id="Trazado_135" data-name="Trazado 135" d="M407.088,9797.113v-79.745H395.009v-16.234h29.352v95.979Z" fill="#db9600"/>
    </g>
    <g id="Grupo_95" data-name="Grupo 95" opacity="0.7">
      <path id="Trazado_142" data-name="Trazado 142" d="M321.5,10050.369a17.275,17.275,0,0,0-24.432,0c-4.309,4.308-3.909,10.248-3.554,15.515.083,1.227.162,2.387.179,3.485l-3.144,3.15a1.039,1.039,0,0,0,0,1.475l7.681,7.681a1.036,1.036,0,0,0,.738.306h.024a1.124,1.124,0,0,0,.716-.31l3.185-3.217c.818.011,1.707.057,2.691.108,1.152.059,2.585.133,4.017.133,3.725,0,8.444-.443,11.895-3.9a17.275,17.275,0,0,0,0-24.431Zm-11.9,26.241c-1.323,0-2.624-.066-3.91-.132-1.14-.058-2.218-.112-3.23-.112a1.036,1.036,0,0,0-.743.309l-2.755,2.785-6.2-6.2,2.718-2.723a1.036,1.036,0,0,0,.3-.735c0-1.348-.1-2.8-.188-4.083-.338-5.031-.689-10.232,2.949-13.871a15.189,15.189,0,1,1,21.48,21.48C317.113,10076.237,312.926,10076.61,309.6,10076.61Z" fill="#202020"/>
      <path id="Trazado_143" data-name="Trazado 143" d="M289.286,10080.752a1.043,1.043,0,0,0-1.474,1.477l1.832,1.83a1.039,1.039,0,0,0,1.475,0,1.046,1.046,0,0,0,0-1.474Z" fill="#202020"/>
      <path id="Trazado_144" data-name="Trazado 144" d="M289.65,10076.016a1.044,1.044,0,0,0-1.474,1.478l6.558,6.559a1.044,1.044,0,0,0,.738.307,1.043,1.043,0,0,0,.737-1.781Z" fill="#202020"/>
      <path id="Trazado_145" data-name="Trazado 145" d="M311.71,10066.7l-6.15-.166.164-6.152a1.036,1.036,0,0,0-.285-.745,1.072,1.072,0,0,0-.774-.326,1.042,1.042,0,0,0-1.026,1.017l-.192,7.193a1.044,1.044,0,0,0,1.015,1.069l7.22.2a1.043,1.043,0,0,0,.028-2.085Z" fill="#202020"/>
      <path id="Trazado_146" data-name="Trazado 146" d="M292.36,10046.1a1.041,1.041,0,0,0,.737-1.78l-4.141-4.135a1.042,1.042,0,0,0-.738-.3,1.031,1.031,0,0,0-.736.306,1.044,1.044,0,0,0,0,1.476l4.141,4.136A1.04,1.04,0,0,0,292.36,10046.1Z" fill="#202020"/>
      <path id="Trazado_147" data-name="Trazado 147" d="M327.362,10078.593a1.044,1.044,0,0,0-1.474,1.478l4.141,4.134a1.031,1.031,0,0,0,.738.3,1.041,1.041,0,0,0,.736-1.781Z" fill="#202020"/>
      <path id="Trazado_148" data-name="Trazado 148" d="M309.495,10039.01h0a1.044,1.044,0,0,0,1.043-1.043l-.006-5.856a1.044,1.044,0,0,0-2.087,0l.005,5.854A1.047,1.047,0,0,0,309.495,10039.01Z" fill="#202020"/>
      <path id="Trazado_149" data-name="Trazado 149" d="M309.489,10085.383a1.047,1.047,0,0,0-1.042,1.045l.005,5.854a1.043,1.043,0,0,0,2.086,0l0-5.856A1.047,1.047,0,0,0,309.489,10085.383Z" fill="#202020"/>
      <path id="Trazado_150" data-name="Trazado 150" d="M339.577,10061.152l-5.854.006a1.042,1.042,0,1,0,0,2.085l5.855-.006a1.036,1.036,0,0,0,.739-.308,1.025,1.025,0,0,0,.3-.734A1.043,1.043,0,0,0,339.577,10061.152Z" fill="#202020"/>
      <path id="Trazado_151" data-name="Trazado 151" d="M285.262,10061.152l-5.856.006a1.042,1.042,0,0,0,0,2.085l5.856-.006a1.042,1.042,0,0,0,.738-.308,1.029,1.029,0,0,0,.3-.736A1.042,1.042,0,0,0,285.262,10061.152Z" fill="#202020"/>
      <path id="Trazado_152" data-name="Trazado 152" d="M326.628,10046.108a1.031,1.031,0,0,0,.738-.307l4.137-4.141a1.043,1.043,0,1,0-1.476-1.475l-4.137,4.142a1.043,1.043,0,0,0,.738,1.78Z" fill="#202020"/>
    </g>
    <path id="Trazado_154" data-name="Trazado 154" d="M178.022,10108.052a1.2,1.2,0,0,1-1.194-1.194V9702.347a1.194,1.194,0,0,1,2.389,0v404.511A1.2,1.2,0,0,1,178.022,10108.052Z" fill="#202020"/>
    <text id="Lo_que_uno_desea_o_necesita_que_ocurra:_deseable._" data-name="Lo que uno desea o necesita que ocurra: deseable.



  






" transform="translate(232.497 9832.494)" fill="#444242" font-size="16" font-family="OpenSans, Open Sans"><tspan x="0" y="17">Lo que uno desea o </tspan><tspan x="0" y="39">necesita que ocurra: </tspan><tspan x="0" y="61">deseable.</tspan><tspan x="0" y="83"></tspan><tspan x="0" y="105"></tspan><tspan x="0" y="127"></tspan><tspan x="0" y="149" xml:space="preserve">  </tspan><tspan x="0" y="171"></tspan></text>
    <g id="Grupo_92" data-name="Grupo 92">
      <path id="Trazado_136" data-name="Trazado 136" d="M684.7,9763.085l-19.612,17.793h37.794v16.235H640.8v-15.2l34.158-32.339c7.793-7.4,11.039-12.988,11.039-19.222,0-8.572-5.974-15.066-13.9-15.066-8.962,0-14.936,7.533-14.936,18.962H640.154c0-22.079,13.377-34.807,31.82-34.807,17.793,0,31.3,13.508,31.3,31.171C703.274,9742.435,699.248,9749.967,684.7,9763.085Z" fill="#db9600"/>
    </g>
    <g id="Grupo_96" data-name="Grupo 96" opacity="0.7">
      <path id="Trazado_153" data-name="Trazado 153" d="M618.259,10067.024a.984.984,0,0,0-.22-.327l-3.966-3.937a.979.979,0,0,0-.01-1.395l3.937-3.97.034-.039.016-.03a.991.991,0,0,0,.165-.255,1.007,1.007,0,0,0,.059-.264l.006-.029.012-.018v-.014l.018-.036-.019-.059a1.038,1.038,0,0,0-.618-.89.8.8,0,0,0-.288-.063l-.066-.016-6.738-.03a1,1,0,0,0-.326.074.947.947,0,0,0-.278.179l-.017.008-5.143,5.185-1.99.009a21.174,21.174,0,1,0,.009,2.008l2.116-.009,5.062,5.011a.9.9,0,0,0,.266.175l.059.036h.029a1.248,1.248,0,0,0,.309.051l6.709.024a1,1,0,0,0,.275-.056l-.058-.231.147.2a1.137,1.137,0,0,0,.294-.2.425.425,0,0,0,.068-.093.994.994,0,0,0,.147-.232.877.877,0,0,0,.059-.272l.018-.074v-.034A1.011,1.011,0,0,0,618.259,10067.024Zm-7.162-.649-3.3-3.279,3.752-.015,3.34,3.313Zm3.8-8.7-3.364,3.394-3.873.016,3.4-3.426Zm-33.206,3.514a1,1,0,0,0-.356,1.939,1.02,1.02,0,0,0,.365.067l3.341-.014a2.393,2.393,0,0,1-.087.269,3.516,3.516,0,0,1-3.262,2.234,3.455,3.455,0,0,1-1.254-.234,3.493,3.493,0,0,1,1.261-6.752,3.486,3.486,0,0,1,3.332,2.476Zm5.4-.022a5.487,5.487,0,1,0-.266,3.007,5.425,5.425,0,0,0,.276-1l2.966-.012a8.411,8.411,0,0,1-8.384,7.463h0a8.439,8.439,0,0,1-7.857-11.472,8.493,8.493,0,0,1,7.877-5.4,8.424,8.424,0,0,1,8.351,7.4Zm4.977-.02a10.5,10.5,0,0,0-6.614-8.694,10.373,10.373,0,0,0-3.751-.7,10.515,10.515,0,0,0-9.751,6.681,10.444,10.444,0,0,0,9.73,14.2,10.435,10.435,0,0,0,10.407-9.479l3.383-.014a13.681,13.681,0,0,1-.887,4.03,13.916,13.916,0,0,1-12.909,8.843,13.822,13.822,0,0,1-12.877-18.8,13.919,13.919,0,0,1,12.91-8.843,13.719,13.719,0,0,1,4.962.928,13.867,13.867,0,0,1,8.788,11.834Zm5.4-.022a15.815,15.815,0,1,0-21.479,15.832,15.7,15.7,0,0,0,5.683,1.064,15.942,15.942,0,0,0,14.784-10.127,15.749,15.749,0,0,0,1.022-4.762l3.332-.013a19.03,19.03,0,0,1-1.245,5.975,19.3,19.3,0,0,1-17.9,12.261,19.175,19.175,0,0,1-17.854-26.065,19.3,19.3,0,0,1,17.9-12.26,19.151,19.151,0,0,1,19.1,18.082Z" fill="#202020"/>
    </g>
    <path id="Trazado_157" data-name="Trazado 157" d="M722.678,10108.052a1.2,1.2,0,0,1-1.194-1.194V9919.731a1.194,1.194,0,1,1,2.388,0v187.126A1.2,1.2,0,0,1,722.678,10108.052Z" fill="#202020"/>
    <path id="Trazado_158" data-name="Trazado 158" d="M722.678,9890.667a1.2,1.2,0,0,1-1.194-1.194V9702.347a1.194,1.194,0,1,1,2.388,0v187.126A1.2,1.2,0,0,1,722.678,9890.667Z" fill="#202020"/>
    <path id="Trazado_132" data-name="Trazado 132" d="M485.177,9905.4l-35.036-35.036v3.186h0v16.721l14.333,15.13-14.333,15.926v15.926h0v3.982Z" fill="#ff3232"/>
    <path id="Trazado_139" data-name="Trazado 139" d="M450.35,9920.926a1.194,1.194,0,0,1-.844-2.039L463.79,9904.6l-14.284-14.284a1.194,1.194,0,1,1,1.689-1.689l15.129,15.13a1.2,1.2,0,0,1,0,1.689L451.2,9920.576A1.2,1.2,0,0,1,450.35,9920.926Z" fill="#202020"/>
    <path id="Trazado_155" data-name="Trazado 155" d="M450.35,10108.052a1.2,1.2,0,0,1-1.194-1.194V9919.731a1.194,1.194,0,1,1,2.388,0v187.126A1.2,1.2,0,0,1,450.35,10108.052Z" fill="#202020"/>
    <path id="Trazado_156" data-name="Trazado 156" d="M450.35,9890.667a1.2,1.2,0,0,1-1.194-1.194V9702.347a1.194,1.194,0,1,1,2.388,0v187.126A1.2,1.2,0,0,1,450.35,9890.667Z" fill="#202020"/>
    <text id="Correctivo" transform="translate(497.723 9770.264)" fill="#444242" stroke="#444242" stroke-miterlimit="10" stroke-width="2" font-size="24" font-family="Montserrat-ExtraLight, Montserrat" font-weight="200"><tspan x="0" y="23">Correctivo</tspan></text>
    <text id="Corrige_lo_malo_y_estudia_lo_bueno_para_que_mejore._" data-name="Corrige lo malo y estudia lo bueno para que mejore.


  






" transform="translate(498.973 9832.494)" fill="#444242" font-size="16" font-family="OpenSans, Open Sans"><tspan x="0" y="17">Corrige lo malo y </tspan><tspan x="0" y="39">estudia lo bueno para </tspan><tspan x="0" y="61">que mejore.</tspan><tspan x="0" y="83"></tspan></text>
    <path id="Trazado_133" data-name="Trazado 133" d="M757.5,9905.4l-35.036-35.036v3.186h0v16.721L736.8,9905.4l-14.333,15.926v15.926h0v3.982Z" fill="#ff3232"/>
    <path id="Trazado_140" data-name="Trazado 140" d="M722.678,9920.926a1.194,1.194,0,0,1-.845-2.039l14.285-14.285-14.285-14.284a1.194,1.194,0,0,1,1.689-1.689l15.13,15.13a1.2,1.2,0,0,1,0,1.689l-15.13,15.129A1.191,1.191,0,0,1,722.678,9920.926Z" fill="#202020"/>
  </g>
</svg>
