<svg xmlns="http://www.w3.org/2000/svg" width="568.171" height="871.896" viewBox="0 0 568.171 871.896">
  <g id="Grupo_110" data-name="Grupo 110" transform="translate(-723.045 -7895.384)">
    <path id="Trazado_6" data-name="Trazado 6" d="M896.642,7919.151l-21.092,21.092a14.841,14.841,0,0,1-20.925,0l-21.092-21.092H723.045V8767.28H1007.13V7919.151Z" fill="#fce8c8"/>
    <path id="Trazado_7" data-name="Trazado 7" d="M1182.213,7919.151l-20.808,21.092a14.5,14.5,0,0,1-20.643,0l-20.809-21.092h-109V8767.28h280.265V7919.151Z" fill="#4c1000"/>
    <text id="MACTOR_significa_Matriz_de_Alianzas_y_Conflictos:_Tácticas_Objetivos_y_Recomendaciones_y_como_ya_se_mencionó_anteriormente_el_método_busca_estimar_la_correlación_de_Fuerzas_que_existen_entre_los_actores_así_como_estudiar_sus_convergencias_y_divergenci" data-name="MACTOR significa &quot;Matriz de Alianzas y Conflictos: Tácticas, Objetivos y Recomendaciones&quot; y como ya se mencionó anteriormente, el método busca estimar la correlación de Fuerzas que existen entre los actores, así como estudiar sus convergencias y divergenci" transform="translate(751.838 8126.097)" fill="#444242" font-size="16" font-family="OpenSans-Bold, Open Sans" font-weight="700"><tspan x="0" y="17">MACTOR significa &quot;Matriz de </tspan><tspan x="0" y="39">Alianzas y Conflictos: </tspan><tspan y="39" font-family="OpenSans, Open Sans" font-weight="400">Tácticas, </tspan><tspan x="0" y="61" font-family="OpenSans, Open Sans" font-weight="400">Objetivos y Recomendaciones&quot; </tspan><tspan x="0" y="83" font-family="OpenSans, Open Sans" font-weight="400">y como ya se mencionó </tspan><tspan x="0" y="105" font-family="OpenSans, Open Sans" font-weight="400">anteriormente, el método </tspan><tspan x="0" y="127" font-family="OpenSans, Open Sans" font-weight="400">busca estimar la correlación de </tspan><tspan x="0" y="149" font-family="OpenSans, Open Sans" font-weight="400">Fuerzas que existen entre los </tspan><tspan x="0" y="171" font-family="OpenSans, Open Sans" font-weight="400">actores, así como estudiar sus </tspan><tspan x="0" y="193" font-family="OpenSans, Open Sans" font-weight="400">convergencias y divergencias </tspan><tspan x="0" y="215" font-family="OpenSans, Open Sans" font-weight="400">con respecto a determinados </tspan><tspan x="0" y="237" font-family="OpenSans, Open Sans" font-weight="400">retos y objetivos asociados.</tspan><tspan font-family="OpenSans, Open Sans" font-weight="400"><tspan x="0" y="259">El análisis de las influencias </tspan><tspan x="0" y="281">entre actores y la evaluación de </tspan><tspan x="0" y="303">las relaciones de fuerza </tspan><tspan x="0" y="325">determinadas hacen parte de </tspan><tspan x="0" y="347">la segunda fase del método.</tspan><tspan x="0" y="369"></tspan><tspan x="0" y="391">Realizar la lectura siguiente: </tspan><tspan x="0" y="413">MACTOR</tspan><tspan x="0" y="435"></tspan><tspan x="0" y="457" xml:space="preserve">  </tspan><tspan x="0" y="479"></tspan></tspan></text>
    <text id="En_efecto_considerando_las_definiciones_anteriores_Mactor_busca_determinar_tres_características_de_la_naturaleza_de_los_actores:_relación_de_fuerzas_entre_actores_posición_de_los_mismos_y_poder_de_mando_de_éstos_sobre_las_variables._El_análisis_de_conve" data-name="En efecto, considerando las definiciones anteriores, Mactor busca determinar tres características de la naturaleza de los actores: relación de fuerzas entre actores, posición de los mismos y poder de mando de éstos sobre las variables.
El análisis de conve" transform="translate(1032.487 8126.097)" fill="#fff" font-size="16" font-family="OpenSans, Open Sans"><tspan x="0" y="17">En efecto, considerando las </tspan><tspan x="0" y="39">definiciones anteriores, Mactor </tspan><tspan x="0" y="61">busca determinar tres </tspan><tspan x="0" y="83">características de la naturaleza </tspan><tspan x="0" y="105">de los actores: relación de </tspan><tspan x="0" y="127">fuerzas entre actores, posición </tspan><tspan x="0" y="149">de los mismos y poder de </tspan><tspan x="0" y="171">mando de éstos sobre las </tspan><tspan x="0" y="193">variables.</tspan><tspan x="0" y="215">El análisis de convergencias y </tspan><tspan x="0" y="237">divergencias tiene el propósito </tspan><tspan x="0" y="259">de establecer para cada pareja </tspan><tspan x="0" y="281">de actores, el número de </tspan><tspan x="0" y="303">objetivos sobre los cuales </tspan><tspan x="0" y="325">pueden aliarse o entrar en </tspan><tspan x="0" y="347">conflicto. </tspan><tspan x="0" y="369"></tspan><tspan x="0" y="391">Realizar la lectura siguiente: </tspan><tspan x="0" y="413">MACTOR</tspan><tspan x="0" y="435"></tspan><tspan x="0" y="457" xml:space="preserve">  </tspan><tspan x="0" y="479"></tspan></text>
    <g id="Grupo_69" data-name="Grupo 69">
      <circle id="Elipse_11" data-name="Elipse 11" cx="18" cy="18" r="18" transform="translate(845.923 8614.235)" fill="red" opacity="0.8"/>
      <g id="Grupo_68" data-name="Grupo 68">
        <path id="Trazado_111" data-name="Trazado 111" d="M851.511,8627.91a13.139,13.139,0,0,0,0,8.648.932.932,0,0,0,.041.119,13.144,13.144,0,0,0,24.742,0,.805.805,0,0,0,.042-.119,13.139,13.139,0,0,0,0-8.648.988.988,0,0,0-.042-.118,13.144,13.144,0,0,0-24.742,0,.972.972,0,0,0-.041.118Zm12.412-6.937c.5,0,1.308.906,1.983,2.931a20.718,20.718,0,0,1,.775,3.32h-5.516a20.634,20.634,0,0,1,.776-3.32c.675-2.024,1.482-2.931,1.982-2.931Zm2.987,8.137c.091,1,.139,2.052.139,3.125s-.048,2.121-.139,3.125h-5.974c-.09-1-.138-2.053-.138-3.125s.048-2.121.138-3.125Zm8.273,3.125a11.233,11.233,0,0,1-.441,3.125H868.8c.088-1.025.133-2.076.133-3.125s-.045-2.1-.133-3.125h5.942a11.233,11.233,0,0,1,.441,3.125Zm-11.26,11.26c-.5,0-1.307-.906-1.982-2.93a20.61,20.61,0,0,1-.776-3.32h5.516a20.613,20.613,0,0,1-.775,3.32c-.675,2.023-1.482,2.93-1.983,2.93Zm-4.877-8.135H853.1a11.269,11.269,0,0,1,0-6.25h5.941c-.088,1.024-.132,2.075-.132,3.125s.044,2.1.132,3.125Zm-5.205,1.885h5.421a18.088,18.088,0,0,0,1.717,5.858,11.308,11.308,0,0,1-7.138-5.858Zm13.026,5.858a18.063,18.063,0,0,0,1.717-5.858h5.422a11.312,11.312,0,0,1-7.139,5.858Zm7.139-15.879h-5.422a18.063,18.063,0,0,0-1.717-5.858,11.312,11.312,0,0,1,7.139,5.858Zm-13.027-5.858a18.088,18.088,0,0,0-1.717,5.858h-5.421a11.308,11.308,0,0,1,7.138-5.858Zm0,0" fill="#fff"/>
      </g>
    </g>
    <text id="https:_drive.google.com_file_d_12MFuQv7YYiqm1bD_ZV0CZoOq_Z8rOQN7_view_usp_sharing" data-name="https://drive.google.com/file/d/12MFuQv7YYiqm1bD_ZV0CZoOq_Z8rOQN7/view?usp=sharing" transform="translate(757.777 8658.534)" fill="#211915" font-size="16" font-family="OpenSans-Italic, Open Sans" font-style="italic"><tspan x="0" y="17">https://drive.google.com/file/d/</tspan><tspan x="0" y="39">12MFuQv7YYiqm1bD_ZV0CZoO</tspan><tspan x="0" y="61">q_Z8rOQN7/view?usp=sharing</tspan></text>
    <g id="Grupo_71" data-name="Grupo 71">
      <circle id="Elipse_12" data-name="Elipse 12" cx="18" cy="18" r="18" transform="translate(1120.633 8614.235)" fill="red" opacity="0.8"/>
      <g id="Grupo_70" data-name="Grupo 70">
        <path id="Trazado_112" data-name="Trazado 112" d="M1126.22,8627.91a13.156,13.156,0,0,0,0,8.648,1.143,1.143,0,0,0,.042.119,13.144,13.144,0,0,0,24.742,0,.805.805,0,0,0,.042-.119,13.14,13.14,0,0,0,0-8.648.977.977,0,0,0-.042-.118,13.144,13.144,0,0,0-24.742,0,1.21,1.21,0,0,0-.042.118Zm12.413-6.937c.5,0,1.308.906,1.983,2.931a20.7,20.7,0,0,1,.775,3.32h-5.516a20.518,20.518,0,0,1,.776-3.32c.674-2.024,1.482-2.931,1.982-2.931Zm2.987,8.137c.091,1,.139,2.052.139,3.125s-.048,2.121-.139,3.125h-5.974c-.09-1-.138-2.053-.138-3.125s.048-2.121.138-3.125Zm8.273,3.125a11.233,11.233,0,0,1-.441,3.125h-5.942c.088-1.025.133-2.076.133-3.125s-.045-2.1-.133-3.125h5.942a11.233,11.233,0,0,1,.441,3.125Zm-11.26,11.26c-.5,0-1.308-.906-1.982-2.93a20.493,20.493,0,0,1-.776-3.32h5.516a20.6,20.6,0,0,1-.775,3.32c-.675,2.023-1.482,2.93-1.983,2.93Zm-4.877-8.135h-5.941a11.271,11.271,0,0,1,0-6.25h5.941c-.088,1.024-.132,2.075-.132,3.125s.044,2.1.132,3.125Zm-5.2,1.885h5.421a18.087,18.087,0,0,0,1.717,5.858,11.308,11.308,0,0,1-7.138-5.858Zm13.026,5.858a18.063,18.063,0,0,0,1.717-5.858h5.422a11.312,11.312,0,0,1-7.139,5.858Zm7.139-15.879h-5.422a18.063,18.063,0,0,0-1.717-5.858,11.312,11.312,0,0,1,7.139,5.858Zm-13.027-5.858a18.087,18.087,0,0,0-1.717,5.858h-5.421a11.308,11.308,0,0,1,7.138-5.858Zm0,0" fill="#fff"/>
      </g>
    </g>
    <text id="https:_drive.google.com_file_d_12MFuQv7YYiqm1bD_ZV0CZoOq_Z8rOQN7_view_usp_sharing-2" data-name="https://drive.google.com/file/d/12MFuQv7YYiqm1bD_ZV0CZoOq_Z8rOQN7/view?usp=sharing" transform="translate(1032.487 8658.534)" fill="#db9600" font-size="16" font-family="OpenSans-Italic, Open Sans" font-style="italic"><tspan x="0" y="17">https://drive.google.com/file/d/</tspan><tspan x="0" y="39">12MFuQv7YYiqm1bD_ZV0CZoO</tspan><tspan x="0" y="61">q_Z8rOQN7/view?usp=sharing</tspan></text>
    <text id="Correlación_de_fuerzas_" data-name="Correlación de fuerzas " transform="translate(778.993 8051.008)" fill="#444242" font-size="24" font-family="Montserrat-SemiBold, Montserrat" font-weight="600"><tspan x="16.196" y="23">Correlación </tspan><tspan x="23.024" y="51.8">de fuerzas </tspan></text>
    <text id="Mapas_de_convergencia_y_divergencia_" data-name="Mapas de convergencia y divergencia  " transform="translate(1045.218 8059.318)" fill="#fff" font-size="19" font-family="Montserrat-SemiBold, Montserrat" font-weight="600" opacity="0.9"><tspan x="1.498" y="18">Mapas de convergencia </tspan><tspan x="51.725" y="40.8" xml:space="preserve">y divergencia  </tspan></text>
    <circle id="Elipse_15" data-name="Elipse 15" cx="10.113" cy="10.113" r="10.113" transform="translate(853.179 7915.31) rotate(-78.633)" fill="#ff3232"/>
    <circle id="Elipse_16" data-name="Elipse 16" cx="10.113" cy="10.113" r="10.113" transform="matrix(0.209, -0.978, 0.978, 0.209, 1137.169, 7915.164)" fill="#ff3232"/>
    <path id="Trazado_113" data-name="Trazado 113" d="M1174.9,7986.544h-27.551a1.073,1.073,0,0,0-.749.311l-11.633,11.631a1.091,1.091,0,0,0-.229.345,1.072,1.072,0,0,0-.081.4v12.852a21.143,21.143,0,1,0,21.825,27.1c.022-.074.037-.15.059-.225H1174.9a1.059,1.059,0,0,0,1.059-1.059v-50.3A1.059,1.059,0,0,0,1174.9,7986.544Zm-28.61,3.616v8.017h-8.018Zm8.162,48.424a19.033,19.033,0,1,1-13.854-23.927l-5.4,18.215a1.058,1.058,0,0,0,1.289,1.323l18.332-4.915A18.95,18.95,0,0,1,1154.447,8038.584Zm19.389-1.741h-16.82a21.138,21.138,0,0,0-.407-9.143,1.057,1.057,0,0,0-1.3-.748l-17.554,4.707,5.175-17.443a1.059,1.059,0,0,0-.714-1.316,21.081,21.081,0,0,0-5.449-.863v-11.742h10.574a1.059,1.059,0,0,0,1.059-1.059v-10.574h25.433Zm-30.655-10.078a1.06,1.06,0,0,0,1.159.2l14.177-6.277a1.058,1.058,0,0,0,.539-1.4,16.453,16.453,0,0,0-9.177-8.745,1.058,1.058,0,0,0-1.369.606l-5.586,14.462A1.059,1.059,0,0,0,1143.181,8026.765Zm6.909-13.825a14.324,14.324,0,0,1,6.566,6.257l-10.835,4.8Z" fill="#fff"/>
    <g id="Grupo_84" data-name="Grupo 84">
      <g id="Grupo_83" data-name="Grupo 83">
        <path id="Trazado_119" data-name="Trazado 119" d="M892.288,8051.129a.988.988,0,0,1-.462-.114l-25.567-13.346L843.037,8051a1,1,0,0,1-1-1.734l23.685-13.591a.844.844,0,0,1,.106-.056l22-11.175a6.913,6.913,0,0,0,1.707-3.422,2.244,2.244,0,0,0-1.13-2.085l-3.231,1.593a1,1,0,0,1-.884-1.794l3.395-1.675c1.382-3.805.187-5.206-1.065-5.876l-5.028,2.261a1,1,0,0,1-.82-1.825l5.037-2.264c.9-3.132-.114-4.317-1.149-4.893l-8.306,2.817a1,1,0,0,1-.643-1.9l8.633-2.927a4.848,4.848,0,0,0,1.444-1.076,3.328,3.328,0,0,0,.327-2.574,4.426,4.426,0,0,0-2.514-2.228,7.6,7.6,0,0,0-3.432.46l-.038.011-.027.006-10.421,2.444a1.235,1.235,0,0,1-.148.027l-3.186.54a1,1,0,0,1-.334-1.972l2.491-.421.133-1.468-2.636-.075a22.683,22.683,0,0,1-3.659-.318.987.987,0,0,1-.231-.074,8.121,8.121,0,0,1-4.74-5.077,1,1,0,0,1,.753-1.259q2.235-.471,4.087-.848l-5.84-.7-3.573,7.389,7.7,3.053a1.013,1.013,0,0,1,.434.333,5.534,5.534,0,0,1,1.155,5.035,6.514,6.514,0,0,1-2.671,3.357c1.917,3.256.884,5.587-.625,7.1a5.042,5.042,0,0,1-.461,4.629,8.449,8.449,0,0,1-2.94,2.725c.2,1.276-.177,2.954-2.257,4.754a1,1,0,0,1-.472.228,22.673,22.673,0,0,1-11.076-.646l-13.666,7.684a1,1,0,1,1-.98-1.744l12.731-7.158c-1.906-3.689-.851-5.9.537-7.15l-.732-.488a1,1,0,0,1-.423-.623c-.719-3.365-.229-5.878,1.455-7.49-1.217-1.906-1.679-4.592,1.257-7.755a7.027,7.027,0,0,1,.385-5.138,6.128,6.128,0,0,1,4.183-3.1,1.006,1.006,0,0,1,.613.039l3.995,1.6,3.939-8.15a1,1,0,0,1,1.019-.558l12.855,1.533c5.966-1.033,7.356-1.308,7.628-1.377a1,1,0,0,1,1.294.613l2.848,8.317a7.7,7.7,0,0,1,3.666-.209.985.985,0,0,1,.152.055,6.342,6.342,0,0,1,3.654,3.413,5.345,5.345,0,0,1-.469,4.241,1.024,1.024,0,0,1-.125.194,5.847,5.847,0,0,1-.826.816c1.243,1.107,2.068,2.99,1.245,6.186,1.871,1.123,3.366,3.363,1.862,7.828a4.215,4.215,0,0,1,1.845,3.759,7.706,7.706,0,0,1-1.538,3.706l14.985,7.422a1,1,0,1,1-.889,1.792l-15.6-7.727-20.071,10.194,24.329,12.7a1,1,0,0,1-.464,1.886Zm-50.463-27.342a20.568,20.568,0,0,0,10.209.757c1.254-1.153,1.456-2.047,1.411-2.621a26.947,26.947,0,0,1-6.223-1.195c-.959-.331-2.653-1.043-5.176-2.176-1.2.767-2.137,2.086-.626,5.057A3.018,3.018,0,0,0,841.825,8023.787Zm.649-7.235c2.65,1.194,4.463,1.962,5.391,2.282a25.476,25.476,0,0,0,6.159,1.128,6.8,6.8,0,0,0,2.615-2.263,3.018,3.018,0,0,0,.261-2.94,81.624,81.624,0,0,1-14.869-4.584c-1.207,1.062-1.566,2.821-1.093,5.352Zm.034-8.346A79.549,79.549,0,0,0,857.3,8012.8c1.1-1.042,1.894-2.579.1-5.235l-14.239-5.029C840.777,8005.162,841.563,8007,842.508,8008.206Zm1.206-7.6,14.208,5.017a4.94,4.94,0,0,0,2.257-2.533,3.469,3.469,0,0,0-.682-3.044l-8.427-3.341h0l-.015-.006-2.046-.849-2.472-.971a4.043,4.043,0,0,0-2.606,2A5.138,5.138,0,0,0,843.714,8000.61Zm19.133-6.741a21.993,21.993,0,0,0,3.214.261q3.384.1,3.677.1a1,1,0,0,1,1,1.09l-.175,1.922,8.026-1.883-2.5-7.311c-1.039.205-3.06.564-7.12,1.267h0s.006,0,0,0h-.006c-1.878.3-4.982.906-9.236,1.795A6.554,6.554,0,0,0,862.847,7993.869Z" fill="#333"/>
      </g>
    </g>
  </g>
</svg>
