<svg xmlns="http://www.w3.org/2000/svg" width="219.272" height="47" viewBox="0 0 219.272 47">
  <g id="Grupo_90" data-name="Grupo 90" transform="translate(-228.992 -11145.771)">
    <g id="Grupo_86" data-name="Grupo 86">
      <text id="Educación_" data-name="Educación

" transform="translate(264.264 11145.771)" fill="#444242" font-size="16" font-family="OpenSans, Open Sans"><tspan x="0" y="17">Educación</tspan><tspan x="0" y="39"></tspan></text>
      <g id="Grupo_82" data-name="Grupo 82" transform="translate(20 -43)">
        <circle id="Elipse_1" data-name="Elipse 1" cx="9.059" cy="9.059" r="9.059" transform="translate(208.992 11192.06)" fill="#ff3232"/>
        <path id="Trazado_8" data-name="Trazado 8" d="M198.052,11213.633a1.854,1.854,0,1,0-1.879-1.828A1.865,1.865,0,0,0,198.052,11213.633Zm0-6.449a4.692,4.692,0,0,1,4.672,4.672c0,2.438-2.793,5.13-4.317,7.009a.427.427,0,0,1-.711,0c-1.523-1.879-4.316-4.571-4.316-7.009A4.66,4.66,0,0,1,198.052,11207.184Z" transform="translate(20 -12)" fill="#fff" fill-rule="evenodd"/>
      </g>
    </g>
  </g>
</svg>
